<svg width="178" height="45" viewBox="0 0 178 45" fill="none" xmlns="http://www.w3.org/2000/svg">
<path d="M139.356 13.598C138.737 14.0277 138.28 14.3511 137.818 14.6676C137.259 15.051 137.03 15.0118 136.626 14.4758C135.288 12.6948 133.376 12.0479 131.257 12.6717C130.074 13.0182 129.224 13.7389 128.961 14.9771C128.686 16.2707 129.06 17.4073 130.188 18.1327C131.329 18.8673 132.553 19.4748 133.743 20.1332C134.951 20.8031 136.203 21.4037 137.358 22.1522C139.721 23.6814 140.604 25.943 140.086 28.655C139.564 31.3901 137.707 33.0141 135.083 33.5916C131.315 34.4209 127.774 33.356 125.644 29.5814C125.567 29.4451 125.5 29.2995 125.406 29.1147C126.161 28.6019 126.9 28.1006 127.582 27.6386C128.187 28.4517 128.688 29.2857 129.342 29.9764C131.225 31.9607 134.579 32.0277 136.385 30.1797C137.808 28.7243 137.832 26.368 136.413 24.9058C135.399 23.8593 134.073 23.3165 132.798 22.6835C131.331 21.9558 129.82 21.2651 128.485 20.3365C126.364 18.8626 125.688 16.6935 126.344 14.2333C126.988 11.8216 128.846 10.6804 131.179 10.2992C133.535 9.91344 135.801 10.1768 137.709 11.78C138.307 12.2813 138.774 12.9442 139.356 13.598Z" fill="#707A8A"/>
<path d="M63.3921 33.1804C63.3921 25.7304 63.3921 18.299 63.3921 10.7935C63.5838 10.7843 63.7732 10.7658 63.965 10.7658C65.9701 10.7635 67.9776 10.7381 69.9828 10.7774C70.7797 10.7935 71.5905 10.8767 72.3667 11.0523C75.5523 11.7684 77.2664 14.127 77.1001 17.4858C76.9176 21.145 74.656 23.358 70.7636 23.6052C69.4237 23.6907 68.077 23.6375 66.7348 23.6491C66.5177 23.6514 66.3028 23.6491 66.0279 23.6491C66.0279 26.8508 66.0279 29.9902 66.0279 33.1827C65.1201 33.1804 64.2745 33.1804 63.3921 33.1804ZM66.0394 21.2743C68.0261 21.1981 69.992 21.503 71.914 20.9093C73.3693 20.4612 74.1709 19.4655 74.3742 17.9594C74.6722 15.744 73.8106 14.1316 71.9602 13.5287C70.0267 12.9003 68.0377 13.2168 66.0418 13.1383C66.0395 15.8803 66.0394 18.5392 66.0394 21.2743Z" fill="#707A8A"/>
<path d="M59.4999 33.2288C58.5481 33.2288 57.7095 33.2496 56.8756 33.2104C56.73 33.2034 56.5406 32.9632 56.4667 32.7899C55.7783 31.1659 55.0968 29.5373 54.45 27.8972C54.279 27.4629 54.0781 27.2873 53.5837 27.2897C50.3542 27.3151 47.1225 27.3128 43.893 27.292C43.4356 27.2897 43.2323 27.4375 43.066 27.8602C42.4215 29.5027 41.7238 31.1221 41.0655 32.7599C40.9269 33.1041 40.756 33.2589 40.3656 33.2404C39.6125 33.208 38.857 33.2311 38 33.2311C41.5875 25.7119 45.1289 18.285 48.7326 10.7334C52.3386 18.2665 55.8892 25.6888 59.4999 33.2288ZM48.7187 15.5245C47.201 18.7424 45.7388 21.8448 44.2488 25.005C47.2796 25.005 50.211 25.005 53.2164 25.005C51.7172 21.8425 50.2456 18.7424 48.7187 15.5245Z" fill="#707A8A"/>
<path d="M86.659 13.1913C84.0301 13.1913 81.5098 13.1913 78.9434 13.1913C78.9434 12.3782 78.9434 11.6089 78.9434 10.8027C84.9542 10.8027 90.9418 10.8027 96.9873 10.8027C96.9873 11.5604 96.9873 12.3274 96.9873 13.1613C94.4647 13.1613 91.9282 13.1613 89.3063 13.1613C89.3063 19.8674 89.3063 26.5135 89.3063 33.1942C88.3892 33.1942 87.5599 33.1942 86.659 33.1942C86.659 26.5435 86.659 19.9136 86.659 13.1913Z" fill="#707A8A"/>
<path d="M121.786 20.9947C121.43 20.9947 121.213 20.9947 120.996 20.9947C118.39 20.9947 115.785 20.9808 113.179 21.0039C112.608 21.0086 112.165 20.8769 111.832 20.3987C111.684 20.1862 111.499 19.9991 111.315 19.8143C110.931 19.4262 110.483 19.3707 110.18 19.8143C109.425 20.9323 108.376 21.0432 107.154 21.0155C104.269 20.9508 101.381 20.9947 98.496 20.9947C98.2789 20.9947 98.0618 20.9947 97.6714 20.9947C97.9047 20.0106 98.0988 19.1051 98.3575 18.218C98.3922 18.1025 98.7548 18.024 98.965 18.024C102.432 18.0124 105.9 17.9962 109.37 18.0286C110.204 18.0355 110.816 17.8022 111.34 17.1369C112.022 16.2706 112.345 16.2614 113.019 17.1392C113.558 17.8392 114.179 18.0563 115.034 18.0309C116.877 17.9778 118.723 18.0286 120.566 18.0032C120.994 17.9962 121.183 18.1395 121.262 18.5414C121.414 19.3268 121.592 20.1053 121.786 20.9947Z" fill="#707A8A"/>
<path d="M97.8442 24.2288C100.381 24.2288 102.723 24.2034 105.068 24.2427C105.899 24.2565 106.521 24.0209 107.052 23.3649C107.78 22.4639 108.064 22.4616 108.766 23.3556C109.288 24.0186 109.882 24.2589 110.725 24.2473C114.075 24.2034 117.424 24.2288 120.774 24.2288C120.993 24.2288 121.211 24.2288 121.502 24.2288C121.393 25.2776 121.047 26.1993 120.605 27.0887C120.559 27.1811 120.328 27.2204 120.183 27.2204C116.292 27.2273 112.4 27.2412 108.51 27.1996C108.179 27.1973 107.789 26.89 107.535 26.6197C106.44 25.4532 106.428 25.4139 105.366 26.5643C104.899 27.0679 104.419 27.2619 103.742 27.2412C102.28 27.1949 100.815 27.2181 99.3504 27.2342C99.0224 27.2388 98.8261 27.1511 98.7221 26.8276C98.4519 25.9937 98.163 25.169 97.8442 24.2288Z" fill="#707A8A"/>
<path d="M119.217 14.8061C118.48 14.8061 117.734 14.88 117.013 14.7738C116.653 14.7206 116.293 14.3834 116.02 14.0923C115.054 13.0528 114.98 13.0089 114.031 14.06C113.514 14.6352 112.961 14.8338 112.197 14.8269C108.429 14.7922 104.661 14.8107 100.894 14.8107C100.679 14.8107 100.464 14.8107 100.09 14.8107C102.375 11.9439 105.181 10.3246 108.69 10.0451C113.031 9.69851 116.531 11.3387 119.275 14.6444C119.256 14.6998 119.238 14.753 119.217 14.8061Z" fill="#707A8A"/>
<path d="M101.116 30.3783C101.608 29.9278 102.07 29.5466 102.486 29.1193C103.051 28.5371 103.426 28.4794 103.902 29.1424C104.507 29.9879 105.258 30.2027 106.267 30.1888C110.296 30.1334 114.327 30.1657 118.363 30.1657C117.827 31.6142 113.999 33.6401 111.019 33.9381C107.115 34.3262 103.782 33.0649 101.116 30.3783Z" fill="#707A8A"/>
</svg>
