<svg width="178" height="45" viewBox="0 0 178 45" fill="none" xmlns="http://www.w3.org/2000/svg">
<path d="M27.9266 21.0771L30.0228 17.5205L35.6725 26.3202L35.6752 28.0089L35.6567 16.3881C35.6434 16.1041 35.4925 15.8442 35.2519 15.691L25.0802 9.84008C24.8423 9.72316 24.5405 9.7244 24.3031 9.84371C24.271 9.85983 24.2408 9.87728 24.212 9.89632L24.1766 9.91864L14.3033 15.6401L14.265 15.6575C14.2157 15.6802 14.166 15.7089 14.1192 15.7424C13.932 15.8767 13.8077 16.0752 13.7675 16.2979C13.7614 16.3316 13.757 16.366 13.7549 16.4006L13.7704 25.8704L19.0329 17.7138C19.6954 16.6322 21.139 16.2839 22.479 16.3028L24.0519 16.3444L14.7848 31.206L15.8772 31.835L25.2553 16.3594L29.4004 16.3444L20.0465 32.2105L23.9445 34.4525L24.4102 34.7203C24.6072 34.8004 24.8395 34.8044 25.0381 34.7327L35.3527 28.7553L33.3807 29.898L27.9266 21.0771ZM28.7264 32.5953L24.7893 26.4161L27.1926 22.338L32.3632 30.4876L28.7264 32.5953Z" fill="#707A8A"/>
<path d="M24.7896 26.416L28.7266 32.5952L32.3635 30.4876L27.1929 22.3379L24.7896 26.416Z" fill="#323740"/>
<path d="M35.6753 28.0088L35.6726 26.3201L30.0229 17.5204L27.9268 21.077L33.3808 29.8979L35.3529 28.7552C35.5463 28.5981 35.6633 28.3676 35.6756 28.1188L35.6753 28.0088Z" fill="#323740"/>
<path d="M12.0001 29.6014L14.7849 31.2061L24.0519 16.3444L22.4791 16.3029C21.139 16.2839 19.6955 16.6323 19.0329 17.7138L13.7704 25.8704L12 28.5906L12.0001 29.6014Z" fill="white"/>
<path d="M29.4006 16.3444L25.2555 16.3594L15.8774 31.835L19.1553 33.7223L20.0467 32.2105L29.4006 16.3444Z" fill="white"/>
<path d="M37.4225 16.323C37.3878 15.4561 36.9185 14.6625 36.1832 14.2005L25.8783 8.2744C25.151 7.90815 24.2424 7.9077 23.5139 8.27414C23.4279 8.31754 13.4925 14.0797 13.4925 14.0797C13.3551 14.1456 13.2226 14.2241 13.098 14.3132C12.4417 14.7837 12.0416 15.5146 12.0005 16.3177V28.5907L13.7709 25.8705L13.7554 16.4007C13.7575 16.366 13.7619 16.332 13.768 16.2984C13.8079 16.0755 13.9324 15.8768 14.1197 15.7425C14.1665 15.709 24.2714 9.85989 24.3036 9.84377C24.5411 9.72446 24.8429 9.72322 25.0807 9.84014L35.2524 15.691C35.493 15.8443 35.6439 16.1041 35.6573 16.3882V28.1189C35.645 28.3677 35.5466 28.5982 35.3532 28.7553L33.3812 29.898L32.3637 30.4877L28.7268 32.5953L25.0386 34.7328C24.8399 34.8045 24.6077 34.8006 24.4107 34.7204L20.047 32.2105L19.1555 33.7223L23.0771 35.9802C23.2068 36.0539 23.3224 36.1193 23.4171 36.1726C23.564 36.2549 23.664 36.31 23.6993 36.327C23.9781 36.4624 24.3791 36.5412 24.7404 36.5412C25.0718 36.5412 25.3948 36.4804 25.7006 36.3606L36.4132 30.1566C37.0281 29.6802 37.3899 28.9618 37.4225 28.1835V16.323Z" fill="#323740"/>
<path d="M51.1657 17.7697C51.4853 17.7697 51.7543 17.8349 51.973 17.965C52.1918 18.0955 52.4062 18.3501 52.6168 18.7288L56.7942 26.3137C56.8361 26.3979 56.8469 26.4671 56.8259 26.5218C56.8049 26.5768 56.7439 26.6037 56.643 26.6037H55.0402C54.8973 26.6037 54.8006 26.549 54.7498 26.4398L53.8539 24.8118H47.9223L47.0513 26.4398C46.9924 26.5493 46.8957 26.6037 46.7613 26.6037H45.121C45.0113 26.6037 44.9463 26.5768 44.9253 26.5218C44.9038 26.4671 44.9146 26.3979 44.9566 26.3137L49.0961 18.7288C49.3065 18.3501 49.5127 18.0957 49.7148 17.965C49.9167 17.8349 50.1518 17.7697 50.4214 17.7697H51.1657ZM48.7171 23.3479H53.0586L51.052 19.6501C51.0183 19.5913 50.9718 19.5616 50.9131 19.5616H50.8374C50.7784 19.5616 50.7319 19.5913 50.6985 19.6501L48.7171 23.3479Z" fill="#707A8A"/>
<path d="M70.0472 17.7697C71.0146 17.7697 71.7087 17.9885 72.1297 18.426C72.5502 18.8635 72.7606 19.5114 72.7606 20.3694V21.0887C72.7606 21.8123 72.6132 22.3847 72.3189 22.8052C72.024 23.226 71.5443 23.4951 70.8799 23.6127L73.0382 26.2884C73.0802 26.3307 73.0927 26.3936 73.0759 26.4776C73.0589 26.5618 72.9915 26.6037 72.874 26.6037H71.2457C71.1363 26.6037 71.0603 26.5913 71.0186 26.5663C70.9764 26.5408 70.9344 26.4988 70.8924 26.4398L68.8984 23.8149H64.822V26.3262C64.822 26.5115 64.7293 26.6037 64.5444 26.6037H63.1814C62.9881 26.6037 62.8911 26.5115 62.8911 26.3262V18.1484C62.8911 17.8958 63.0175 17.7697 63.2701 17.7697H70.0472ZM64.8222 22.275H69.6562C70.0852 22.275 70.3882 22.1826 70.5646 21.9974C70.7415 21.8125 70.83 21.5307 70.83 21.1519V20.6217C70.83 20.2432 70.7415 19.9611 70.5646 19.7762C70.3882 19.5913 70.0852 19.4986 69.6562 19.4986H64.9864C64.877 19.4986 64.8225 19.5491 64.8225 19.6501L64.8222 22.275Z" fill="#707A8A"/>
<path d="M86.8739 17.7697C87.7409 17.7697 88.357 17.9421 88.7228 18.2871C89.0891 18.6319 89.2717 19.1536 89.2717 19.8519V20.4578C89.2717 21.1647 89.0026 21.6989 88.4644 22.0607C89.0446 22.3972 89.3349 22.9401 89.3349 23.6887V24.4208C89.3349 24.7576 89.297 25.0606 89.2212 25.3297C89.1455 25.5988 89.0214 25.828 88.8492 26.0176C88.6768 26.2067 88.4475 26.3519 88.1614 26.4528C87.875 26.5538 87.5217 26.604 87.101 26.604H79.6046C79.352 26.604 79.2256 26.4778 79.2256 26.2255V18.1484C79.2256 17.8958 79.352 17.7697 79.6046 17.7697H86.8739ZM81.1567 21.442H86.3314C86.7522 21.442 87.038 21.379 87.1897 21.2529C87.3408 21.1264 87.4168 20.9416 87.4168 20.6972V20.2682C87.4168 20.0073 87.3431 19.816 87.1959 19.6938C87.0485 19.5721 86.8112 19.5111 86.4829 19.5111H81.3209C81.2114 19.5111 81.1567 19.5661 81.1567 19.675V21.442ZM81.1567 22.8177V24.6981C81.1567 24.8075 81.2114 24.8623 81.3209 24.8623H86.4953C86.8321 24.8623 87.0718 24.801 87.2147 24.6794C87.3578 24.5577 87.429 24.3618 87.429 24.0925V23.6127C87.429 23.3519 87.3511 23.1543 87.1957 23.0196C87.0398 22.8852 86.7519 22.8175 86.3312 22.8175L81.1567 22.8177Z" fill="#707A8A"/>
<path d="M97.3452 17.7697C97.5303 17.7697 97.623 17.8621 97.623 18.0472V26.3262C97.623 26.5115 97.5303 26.6037 97.3452 26.6037H95.982C95.7886 26.6037 95.6919 26.5115 95.6919 26.3262V18.0472C95.6919 17.8621 95.7886 17.7697 95.982 17.7697H97.3452Z" fill="#707A8A"/>
<path d="M113.873 17.7697C114.066 17.7697 114.163 17.8621 114.163 18.0472V19.2838C114.163 19.4774 114.066 19.5741 113.873 19.5741H109.91V26.3259C109.91 26.5113 109.817 26.6035 109.632 26.6035H108.257C108.072 26.6035 107.979 26.5113 107.979 26.3259V19.5743H104.016C103.823 19.5743 103.726 19.4777 103.726 19.284V18.0475C103.726 17.8623 103.823 17.7699 104.016 17.7699L113.873 17.7697Z" fill="#707A8A"/>
<path d="M127.409 17.7697C128.377 17.7697 129.072 17.9885 129.492 18.426C129.913 18.8635 130.123 19.5114 130.123 20.3694V21.0887C130.123 21.8123 129.976 22.3847 129.681 22.8052C129.387 23.226 128.907 23.4951 128.242 23.6127L130.401 26.2884C130.443 26.3307 130.455 26.3936 130.438 26.4776C130.421 26.5618 130.354 26.6037 130.237 26.6037H128.608C128.499 26.6037 128.423 26.5913 128.381 26.5663C128.339 26.5408 128.297 26.4988 128.255 26.4398L126.261 23.8149H122.185V26.3262C122.185 26.5115 122.092 26.6037 121.907 26.6037H120.544C120.351 26.6037 120.254 26.5115 120.254 26.3262V18.1484C120.254 17.8958 120.38 17.7697 120.633 17.7697H127.409ZM122.185 22.275H127.019C127.448 22.275 127.751 22.1826 127.927 21.9974C128.104 21.8125 128.193 21.5307 128.193 21.1519V20.6217C128.193 20.2432 128.104 19.9611 127.927 19.7762C127.751 19.5913 127.448 19.4986 127.019 19.4986H122.349C122.239 19.4986 122.185 19.5491 122.185 19.6501V22.275Z" fill="#707A8A"/>
<path d="M138.057 17.7697C138.242 17.7697 138.335 17.8621 138.335 18.0472V23.0828C138.335 23.4194 138.362 23.6992 138.417 23.9218C138.472 24.1449 138.562 24.3216 138.688 24.4517C138.815 24.5824 138.985 24.6751 139.2 24.7293C139.414 24.7843 139.685 24.8115 140.014 24.8115H143.509C143.837 24.8115 144.109 24.7843 144.323 24.7293C144.538 24.6749 144.708 24.5824 144.835 24.4517C144.961 24.3216 145.049 24.1447 145.1 23.9218C145.15 23.6989 145.175 23.4191 145.175 23.0828V18.0472C145.175 17.8621 145.268 17.7697 145.453 17.7697H146.829C147.014 17.7697 147.106 17.8621 147.106 18.0472V23.2719C147.106 23.8778 147.043 24.393 146.917 24.818C146.791 25.2428 146.587 25.5878 146.305 25.8529C146.023 26.118 145.657 26.3094 145.207 26.4271C144.757 26.5453 144.212 26.6037 143.573 26.6037H139.938C139.298 26.6037 138.756 26.5453 138.31 26.4271C137.864 26.3094 137.5 26.118 137.218 25.8529C136.936 25.5878 136.73 25.243 136.599 24.818C136.469 24.393 136.404 23.8776 136.404 23.2719V18.0472C136.404 17.8621 136.5 17.7697 136.694 17.7697H138.057Z" fill="#707A8A"/>
<path d="M156.096 17.7697C156.281 17.7697 156.441 17.7821 156.576 17.8074C156.71 17.8326 156.828 17.8811 156.929 17.9525C157.03 18.024 157.12 18.121 157.2 18.2429C157.28 18.3646 157.362 18.5267 157.447 18.7286L160.072 24.7863C160.105 24.8623 160.164 24.9 160.248 24.9H160.399C160.484 24.9 160.543 24.8623 160.576 24.7863L163.201 18.7286C163.285 18.5265 163.367 18.3646 163.447 18.2429C163.527 18.121 163.618 18.024 163.718 17.9525C163.82 17.8811 163.935 17.8326 164.066 17.8074C164.196 17.7819 164.354 17.7697 164.539 17.7697H165.89C166.327 17.7697 166.622 17.8686 166.773 18.0662C166.924 18.2641 167 18.6027 167 19.0821V26.3262C167 26.5115 166.903 26.6037 166.71 26.6037H165.423C165.238 26.6037 165.145 26.5115 165.145 26.3262V19.7383C165.145 19.6543 165.111 19.6121 165.044 19.6121H164.931C164.846 19.6121 164.792 19.6461 164.766 19.713L162.217 25.3672C162.117 25.5941 162.013 25.786 161.908 25.9414C161.803 26.0973 161.689 26.2255 161.568 26.3262C161.446 26.4271 161.307 26.4988 161.151 26.5408C160.995 26.583 160.812 26.6037 160.602 26.6037H159.996C159.786 26.6037 159.603 26.583 159.447 26.5408C159.292 26.4988 159.153 26.4271 159.031 26.3262C158.909 26.2255 158.795 26.0973 158.69 25.9414C158.585 25.786 158.482 25.5941 158.381 25.3672L155.832 19.713C155.806 19.6458 155.752 19.6121 155.668 19.6121H155.554C155.487 19.6121 155.453 19.6543 155.453 19.7383V26.3262C155.453 26.5115 155.361 26.6037 155.176 26.6037H153.888C153.695 26.6037 153.598 26.5115 153.598 26.3262V19.0821C153.598 18.6027 153.674 18.2641 153.825 18.0662C153.977 17.8688 154.275 17.7697 154.721 17.7697H156.096Z" fill="#707A8A"/>
</svg>
