<svg width="178" height="45" viewBox="0 0 178 45" fill="none" xmlns="http://www.w3.org/2000/svg">
<path d="M15 21.0019C15.0602 20.5504 15.1088 20.099 15.1829 19.6498C15.6876 16.5544 17.0374 13.8734 19.2091 11.616C21.3715 9.36794 23.9993 7.93945 27.0507 7.30276C28.5394 6.99252 30.0466 6.92538 31.5631 7.07819C34.5798 7.37916 37.2724 8.48584 39.6038 10.4075C42.4168 12.725 44.1833 15.6885 44.8547 19.2771C45.5493 22.9907 44.9612 26.5029 43.0049 29.7372C40.6642 33.606 37.2261 35.9582 32.7902 36.8449C32.2229 36.9584 31.6372 36.9862 31.0607 37.0533C30.9843 37.0626 30.9102 37.0788 30.8338 37.0927C30.3059 37.0927 29.778 37.0927 29.2502 37.0927C29.1668 37.0788 29.0858 37.0626 29.0024 37.051C28.3357 36.963 27.6596 36.9144 27.0021 36.7778C24.3743 36.2337 22.0452 35.0784 20.0495 33.2818C17.2805 30.7906 15.6413 27.6952 15.1366 24.0071C15.0811 23.5949 15.044 23.1782 15 22.7661C15 22.1804 15 21.5923 15 21.0019ZM23.6705 28.8343C23.6705 28.8435 23.6705 28.8528 23.6705 28.8621C24.4623 28.8621 25.2541 28.8598 26.0459 28.8621C26.9048 28.8667 27.5508 28.5055 27.9791 27.7577C29.6924 24.7595 31.4033 21.759 33.1235 18.7631C33.5634 17.9968 33.5495 17.2582 33.105 16.4988C32.4266 15.3343 31.7691 14.1581 31.0931 12.9936C30.8847 12.6324 30.6717 12.2666 30.4101 11.9448C30.0536 11.5049 29.4192 11.5072 29.0418 11.9332C28.8635 12.1346 28.72 12.3685 28.5857 12.6023C26.157 16.8415 23.733 21.0853 21.309 25.3267C20.9131 26.019 20.5148 26.7112 20.1444 27.4151C19.7717 28.1212 20.3111 28.8366 20.971 28.832C21.8716 28.832 22.7699 28.8343 23.6705 28.8343ZM36.0824 28.8366C36.0824 28.8459 36.0824 28.8551 36.0824 28.8644C36.3301 28.8644 36.5802 28.8667 36.8279 28.8644C37.6336 28.8528 38.4416 28.8644 39.2473 28.8204C39.8979 28.7834 40.2683 28.1374 40.0275 27.5331C39.965 27.3757 39.8863 27.2229 39.8006 27.0747C39.2079 26.0491 38.6152 25.0234 38.0109 24.0024C37.6243 23.3495 37.2469 22.6897 36.8209 22.0623C36.4736 21.5529 35.7536 21.5552 35.3531 22.0229C35.2419 22.1526 35.147 22.2938 35.059 22.4397C34.6377 23.1527 34.2186 23.8681 33.8042 24.5859C33.2647 25.5166 32.7253 26.4496 32.1951 27.385C31.783 28.1096 32.3503 28.8459 33.0101 28.8389C34.0357 28.8273 35.0591 28.8366 36.0824 28.8366Z" fill="#707A8A"/>
<path d="M116.543 27.2924C115.904 27.2924 115.295 27.2924 114.675 27.2924C114.675 23.8034 114.675 20.3259 114.675 16.8184C114.837 16.8184 114.997 16.8184 115.156 16.8184C115.738 16.8184 116.321 16.8253 116.902 16.8137C117.078 16.8091 117.178 16.8647 117.275 17.0128C118.865 19.4624 120.465 21.9049 122.063 24.3498C122.111 24.4239 122.162 24.498 122.25 24.6276C122.25 21.9906 122.25 19.423 122.25 16.8369C122.878 16.8369 123.484 16.8369 124.109 16.8369C124.109 20.3144 124.109 23.7964 124.109 27.3063C123.822 27.3063 123.537 27.3063 123.25 27.3063C122.824 27.3063 122.396 27.2994 121.97 27.3109C121.81 27.3156 121.72 27.2577 121.637 27.1257C120.002 24.5859 118.363 22.0485 116.724 19.511C116.677 19.4392 116.631 19.3697 116.543 19.3095C116.543 21.9628 116.543 24.6207 116.543 27.2924Z" fill="#707A8A"/>
<path d="M144.425 22.6944C144.425 24.2363 144.425 25.7528 144.425 27.2878C143.805 27.2878 143.196 27.2878 142.575 27.2878C142.575 23.8057 142.575 20.3283 142.575 16.8346C143.179 16.8346 143.786 16.8346 144.418 16.8346C144.418 18.2052 144.418 19.5804 144.418 20.9765C146.064 20.9765 147.69 20.9765 149.338 20.9765C149.338 19.5966 149.338 18.2214 149.338 16.8323C149.972 16.8323 150.581 16.8323 151.202 16.8323C151.202 20.319 151.202 23.7965 151.202 27.2901C150.59 27.2901 149.982 27.2901 149.35 27.2901C149.35 25.7598 149.35 24.2363 149.35 22.6967C147.701 22.6944 146.078 22.6944 144.425 22.6944Z" fill="#707A8A"/>
<path d="M158.404 22.7707C158.404 23.7315 158.404 24.6599 158.404 25.6091C160.18 25.6091 161.947 25.6091 163.732 25.6091C163.732 26.1741 163.732 26.7204 163.732 27.2877C161.347 27.2877 158.956 27.2877 156.545 27.2877C156.545 23.8056 156.545 20.3235 156.545 16.8298C158.851 16.8298 161.153 16.8298 163.466 16.8298C163.466 17.3809 163.466 17.9203 163.466 18.4875C161.789 18.4875 160.111 18.4875 158.414 18.4875C158.414 19.3627 158.414 20.2101 158.414 21.0852C160.004 21.0852 161.597 21.0852 163.204 21.0852C163.204 21.6617 163.204 22.2081 163.204 22.7707C161.599 22.7707 160.011 22.7707 158.404 22.7707Z" fill="#707A8A"/>
<path d="M50.6729 27.3062C51.034 26.4751 51.3743 25.6879 51.7169 24.9007C52.8583 22.2845 53.9998 19.6683 55.1343 17.0475C55.2107 16.8738 55.2939 16.8021 55.4884 16.8113C55.8681 16.8275 56.2502 16.8275 56.6276 16.8113C56.8035 16.8044 56.8821 16.8646 56.9516 17.0243C58.269 20.0943 59.5957 23.1643 60.9177 26.232C61.0636 26.5723 61.2116 26.9126 61.369 27.2784C61.295 27.2877 61.2371 27.3039 61.1815 27.3039C60.6004 27.3062 60.017 27.2993 59.4359 27.3085C59.2854 27.3109 59.2206 27.2553 59.1674 27.121C58.8988 26.445 58.621 25.7735 58.3524 25.0975C58.2968 24.9586 58.232 24.8961 58.0676 24.8961C56.6785 24.903 55.2893 24.903 53.9002 24.8984C53.752 24.8984 53.6872 24.9447 53.6339 25.0836C53.3793 25.7573 53.106 26.4218 52.849 27.0955C52.7865 27.2576 52.7033 27.3132 52.5273 27.3109C51.9277 27.297 51.3234 27.3062 50.6729 27.3062ZM56.0001 19.0386C55.4444 20.481 54.9051 21.8747 54.3587 23.2916C55.4584 23.2916 56.5164 23.2916 57.6091 23.2916C57.0743 21.8747 56.5465 20.4833 56.0001 19.0386Z" fill="#707A8A"/>
<path d="M110.528 27.3061C109.956 27.3061 109.424 27.3061 108.889 27.3061C108.391 27.3061 108.391 27.3061 108.204 26.8454C107.968 26.2643 107.727 25.6854 107.5 25.102C107.444 24.9608 107.384 24.8983 107.22 24.8983C105.831 24.9052 104.441 24.9052 103.052 24.8983C102.904 24.8983 102.837 24.9423 102.784 25.0812C102.524 25.7595 102.251 26.4333 101.992 27.1139C101.936 27.2575 101.865 27.313 101.705 27.3107C101.094 27.2992 100.482 27.3061 99.8364 27.3061C99.8735 27.2065 99.8943 27.1371 99.9221 27.0699C101.376 23.7291 102.832 20.3882 104.284 17.0451C104.358 16.8737 104.446 16.802 104.638 16.8112C105.018 16.8297 105.4 16.8274 105.78 16.8112C105.958 16.8043 106.034 16.8691 106.101 17.0265C107.243 19.6844 108.391 22.3423 109.537 24.9978C109.859 25.7526 110.183 26.505 110.528 27.3061ZM105.145 19.0361C104.587 20.4808 104.05 21.8746 103.506 23.2915C104.613 23.2915 105.671 23.2915 106.757 23.2915C106.22 21.8792 105.694 20.4855 105.145 19.0361Z" fill="#707A8A"/>
<path d="M75.4849 27.3062C76.0799 25.9356 76.6564 24.609 77.2352 23.2824C78.1451 21.1963 79.0549 19.1127 79.9579 17.0243C80.0273 16.8646 80.106 16.8044 80.282 16.8113C80.6686 16.8252 81.0576 16.8275 81.4466 16.8113C81.6248 16.8044 81.6989 16.8692 81.766 17.0266C83.0093 19.9207 84.2572 22.8101 85.5028 25.7018C85.7251 26.2204 85.9496 26.739 86.1788 27.2715C86.121 27.2854 86.0793 27.3016 86.0376 27.3016C85.4334 27.3039 84.8268 27.2969 84.2225 27.3085C84.0674 27.3108 84.0257 27.2298 83.9794 27.1164C83.7085 26.4426 83.4284 25.7689 83.1644 25.0929C83.1089 24.9493 83.0371 24.8961 82.8773 24.8984C81.4952 24.9053 80.1153 24.9053 78.7331 24.8984C78.5595 24.8984 78.4923 24.9632 78.4344 25.1137C78.1775 25.7851 77.9043 26.4519 77.6496 27.1256C77.5964 27.2645 77.5292 27.3132 77.381 27.3108C76.7652 27.3016 76.1447 27.3062 75.4849 27.3062ZM80.8399 19.1127C80.8214 19.1103 80.8029 19.1103 80.7844 19.108C80.2496 20.4948 79.7124 21.884 79.173 23.2824C80.2611 23.2824 81.3238 23.2824 82.4189 23.2824C81.8841 21.8724 81.3609 20.4925 80.8399 19.1127Z" fill="#707A8A"/>
<path d="M138.1 18.2005C137.609 18.5617 137.137 18.9089 136.653 19.2655C136.579 19.1983 136.514 19.1428 136.456 19.0849C135.514 18.1495 134.389 18.0454 133.203 18.4482C131.581 18.9992 130.698 20.5805 130.849 22.3795C130.941 23.4769 131.347 24.4192 132.215 25.1276C133.303 26.0167 135.361 26.4033 136.702 24.7317C136.73 24.697 136.762 24.6646 136.806 24.616C137.315 24.9771 137.82 25.3337 138.334 25.6972C137.825 26.4265 137.169 26.9566 136.35 27.2275C134.303 27.9036 132.375 27.6628 130.678 26.2829C129.619 25.4216 129.087 24.2432 128.923 22.9027C128.791 21.8331 128.89 20.782 129.312 19.7795C130.071 17.9666 131.455 16.9456 133.379 16.64C134.572 16.4502 135.727 16.5544 136.813 17.1401C137.304 17.4017 137.7 17.7791 138.1 18.2005Z" fill="#707A8A"/>
<path d="M63.4067 16.8159C64.0897 16.8159 64.7565 16.809 65.421 16.8252C65.4881 16.8275 65.5831 16.9456 65.6131 17.0289C66.0878 18.3208 66.5508 19.6173 67.0208 20.9116C67.4514 22.1039 67.8844 23.2962 68.3173 24.4909C68.3405 24.5534 68.3659 24.6159 68.4076 24.7247C69.4008 22.0645 70.3778 19.4414 71.3525 16.8252C72.0263 16.8252 72.6838 16.8252 73.3668 16.8252C73.1561 17.3507 72.9523 17.8601 72.7463 18.3671C71.5702 21.2704 70.3917 24.1737 69.2225 27.0816C69.1531 27.2553 69.0697 27.3154 68.8845 27.3085C68.4886 27.2946 68.0927 27.2992 67.6968 27.3062C67.5626 27.3085 67.4908 27.2715 67.4398 27.1372C66.1132 23.7523 64.782 20.3675 63.453 16.9849C63.4368 16.9363 63.4276 16.8854 63.4067 16.8159Z" fill="#707A8A"/>
<path d="M92.1914 25.6115C93.6986 25.6115 95.1618 25.6115 96.6459 25.6115C96.6459 26.1741 96.6459 26.7204 96.6459 27.2854C94.5552 27.2854 92.4577 27.2854 90.3462 27.2854C90.3462 23.801 90.3462 20.3189 90.3462 16.8275C90.9597 16.8275 91.5617 16.8275 92.1914 16.8275C92.1914 19.7447 92.1914 22.6619 92.1914 25.6115Z" fill="#707A8A"/>
</svg>
