<svg width="178" height="45" viewBox="0 0 178 45" fill="none" xmlns="http://www.w3.org/2000/svg">
<path d="M42.317 25.047V25.1009C42.317 27.2036 40.589 28.255 37.997 28.228H32.516V16.7441H37.862C40.211 16.7441 41.669 17.9032 41.669 19.7094V19.7364C41.669 21.0303 40.967 21.7582 40.157 22.2165C41.48 22.7556 42.317 23.5104 42.317 25.047ZM37.322 21.3808C38.456 21.3808 39.158 21.0303 39.158 20.1677V20.1138C39.158 19.3589 38.564 18.9276 37.484 18.9276H34.973V21.3538H37.322V21.3808ZM37.997 26.0444C39.104 26.0444 39.779 25.667 39.779 24.8044V24.7505C39.779 23.9687 39.212 23.5104 37.916 23.5104H34.973V26.0444H37.997ZM47.636 16.771V28.255H45.098V16.771H47.636ZM61.271 16.771V28.255H59.111L53.522 20.9495V28.255H51.011V16.771H53.36L58.76 23.8609V16.771H61.271ZM70.343 16.6901L75.284 28.255H72.584L71.531 25.667H66.671L65.618 28.255H63.08L68.021 16.6901H70.343ZM67.616 23.4295H70.667L69.155 19.7094L67.616 23.4295ZM87.38 16.771V28.255H85.22L79.631 20.9495V28.255H77.12V16.771H79.469L84.869 23.8609V16.771H87.38ZM98.855 24.7774L100.475 26.3949C99.287 27.6619 97.964 28.4437 95.75 28.4437C92.375 28.4437 89.837 25.8288 89.837 22.513V22.4591C89.837 19.1972 92.321 16.5284 95.858 16.5284C98.045 16.5284 99.341 17.2562 100.394 18.3076L98.774 20.1677C97.883 19.359 96.965 18.8737 95.831 18.8737C93.887 18.8737 92.483 20.4912 92.483 22.4591V22.513C92.483 24.4809 93.86 26.1253 95.831 26.1253C97.154 26.1253 97.964 25.5862 98.855 24.7774ZM111.302 25.9905V28.228H102.527V16.7441H111.221V19.0085H105.038V21.3538H110.492V23.6183H105.038V26.0444L111.302 25.9905ZM17.099 11.9995L11.51 15.2075L13.562 16.3936L17.099 14.3718L20.636 16.3936L22.688 15.2075L17.099 11.9995ZM20.636 18.0919L22.688 19.2781V21.6504L19.151 23.6722V27.7158L17.099 28.902L15.047 27.7158V23.6722L11.51 21.6504V19.2781L13.562 18.0919L17.099 20.1138L20.636 18.0919ZM22.688 23.3487V25.7209L20.636 26.9071V24.5348L22.688 23.3487ZM20.609 28.5785L24.146 26.5566V22.513L26.198 21.3269V27.7697L20.609 30.9777V28.5785ZM24.146 18.4424L22.094 17.2563L24.146 16.0701L26.198 17.2563V19.6285L24.146 20.8147V18.4424ZM15.047 31.8134V29.4411L17.099 30.6272L19.151 29.4411V31.8134L17.099 32.9995L15.047 31.8134ZM13.562 26.9071L11.51 25.7209V23.3487L13.562 24.5348V26.9071ZM17.099 18.4424L15.047 17.2563L17.099 16.0701L19.151 17.2563L17.099 18.4424ZM12.104 17.2563L10.052 18.4424V20.8147L8 19.6285V17.2563L10.052 16.0701L12.104 17.2563ZM8 21.2999L10.052 22.486V26.5297L13.589 28.5515V30.9238L8 27.7158V21.2999ZM117.944 22.6208C117.944 25.9366 120.455 28.5515 123.803 28.5515C125.99 28.5515 127.286 27.7428 128.474 26.5027L127.178 25.1818C126.179 26.0984 125.288 26.6645 123.884 26.6645C121.697 26.6645 120.077 24.8314 120.077 22.54C120.077 20.2755 121.67 18.4693 123.884 18.4693C125.207 18.4693 126.179 19.0355 127.097 19.8981L128.393 18.4154C127.286 17.3641 126.017 16.6362 123.884 16.6362C120.401 16.6632 117.944 19.332 117.944 22.6208ZM132.281 28.3628V23.5104H137.789V28.3628H139.814V16.8519H137.789V21.6504H132.281V16.8519H130.256V28.3628H132.281ZM151.316 28.3628H153.449L148.346 16.771H146.483L141.407 28.3628H143.486L144.674 25.5862H150.128L151.316 28.3628ZM145.43 23.78L147.401 19.1702L149.399 23.78H145.43ZM157.121 28.3628V16.8519H155.096V28.3628H157.121ZM170 16.8519H167.975V24.8044L161.792 16.8519H159.929V28.3628H161.927V20.1677L168.299 28.3628H170V16.8519Z" fill="#707A8A"/>
</svg>
