<svg width="178" height="45" viewBox="0 0 178 45" fill="none" xmlns="http://www.w3.org/2000/svg">
<g opacity="0.6">
<path opacity="0.6" d="M29.9034 18.1316L19 23.0904L29.9034 29.5322L40.8025 23.0904L29.9034 18.1316Z" fill="#707A8A"/>
</g>
<g opacity="0.45">
<path opacity="0.45" d="M19 23.0904L29.9034 29.5322V4.99951L19 23.0904Z" fill="#707A8A"/>
</g>
<g opacity="0.8">
<path opacity="0.8" d="M29.9033 4.99951V29.5322L40.8024 23.0904L29.9033 4.99951Z" fill="#707A8A"/>
</g>
<g opacity="0.45">
<path opacity="0.45" d="M19 25.1564L29.9034 40.5171V31.5981L19 25.1564Z" fill="#707A8A"/>
</g>
<g opacity="0.8">
<path opacity="0.8" d="M29.9033 31.5981V40.5171L40.811 25.1564L29.9033 31.5981Z" fill="#707A8A"/>
</g>
<path d="M58.5723 24.4965C58.5723 24.7422 58.3666 24.9422 58.1208 24.9422H49.4234C49.6405 27.0909 51.2577 29.051 53.5321 29.051C55.0865 29.051 56.2408 28.4566 57.1095 27.2166C57.2352 27.0451 57.4237 26.9366 57.6637 27.0394C57.7951 27.0966 57.8866 27.2166 57.9095 27.3537C57.9324 27.4966 57.8923 27.5766 57.8523 27.6566C56.9779 29.1824 55.235 29.931 53.5263 29.931C50.6005 29.931 48.5146 27.3137 48.5146 24.5136C48.5146 21.7135 50.6005 19.0962 53.5263 19.0962C56.4522 19.0905 58.5666 21.702 58.5723 24.4965ZM57.6409 24.0736C57.4523 21.9249 55.8065 19.9648 53.5321 19.9648C51.2577 19.9648 49.6405 21.9249 49.4234 24.0736H57.6409ZM69.1271 19.3076C69.3785 19.3076 69.5615 19.5248 69.5615 19.7419C69.5615 19.9934 69.3728 20.1762 69.1271 20.1762H66.7956V29.3253C66.7956 29.5424 66.607 29.7596 66.3612 29.7596C66.1098 29.7596 65.927 29.5424 65.927 29.3253V20.1762H63.6868C63.4354 20.1762 63.2525 19.9877 63.2525 19.7419C63.2525 19.5248 63.4411 19.3076 63.6868 19.3076H65.927V15.9589C65.927 15.7474 66.0698 15.5532 66.2755 15.5189C66.567 15.4732 66.7956 15.6732 66.7956 15.9475V19.3076H69.1271ZM83.3507 23.7307V29.2738C83.3507 29.5253 83.1335 29.7081 82.9163 29.7081C82.6649 29.7081 82.4821 29.5196 82.4821 29.2738V23.7307C82.4821 21.862 81.4248 19.9934 79.339 19.9934C76.6646 19.9934 75.5103 22.3306 75.6646 24.725C75.6646 24.7879 75.6931 25.0679 75.6931 25.0965V29.2567C75.6931 29.4681 75.5503 29.6624 75.3445 29.6967C75.0531 29.7424 74.8246 29.5424 74.8246 29.2681V11.0615C74.8246 10.8443 75.0131 10.6272 75.2588 10.6272C75.5103 10.6272 75.6931 10.8443 75.6931 11.0615V21.3649C76.4417 20.0277 77.7789 19.1248 79.3333 19.1248C81.8877 19.1248 83.3507 21.3649 83.3507 23.7307ZM98.9458 24.4965C98.9458 24.7422 98.7401 24.9422 98.4944 24.9422H89.791C90.0081 27.0909 91.6253 29.051 93.8997 29.051C95.4541 29.051 96.6084 28.4566 97.4771 27.2166C97.6028 27.0451 97.7915 26.9366 98.0315 27.0394C98.1629 27.0966 98.2542 27.2166 98.2771 27.3537C98.3 27.4966 98.2601 27.5766 98.2201 27.6566C97.3456 29.1824 95.6027 29.931 93.894 29.931C90.9682 29.931 88.8824 27.3137 88.8824 24.5136C88.8824 21.7135 90.9682 19.0962 93.894 19.0962C96.8256 19.0905 98.9401 21.702 98.9458 24.4965ZM98.0085 24.0736C97.82 21.9249 96.1741 19.9648 93.8997 19.9648C91.6253 19.9648 90.0081 21.9249 89.791 24.0736H98.0085ZM109.621 19.7134C109.621 19.9934 109.466 20.1477 109.215 20.182C106.66 20.5534 105.512 22.6392 105.512 25.0679V29.2281C105.512 29.4396 105.369 29.6338 105.163 29.6681C104.872 29.7139 104.643 29.5138 104.643 29.2395V19.7591C104.643 19.5476 104.786 19.3533 104.992 19.3191C105.283 19.2733 105.512 19.4733 105.512 19.7476V21.6792C106.226 20.4677 107.66 19.3133 109.152 19.3133C109.369 19.3076 109.621 19.4676 109.621 19.7134ZM123.907 24.4965C123.907 24.7422 123.701 24.9422 123.455 24.9422H114.758C114.975 27.0909 116.592 29.051 118.867 29.051C120.421 29.051 121.575 28.4566 122.444 27.2166C122.57 27.0451 122.758 26.9366 122.998 27.0394C123.13 27.0966 123.221 27.2166 123.244 27.3537C123.267 27.4966 123.227 27.5766 123.187 27.6566C122.313 29.1824 120.57 29.931 118.861 29.931C115.935 29.931 113.849 27.3137 113.849 24.5136C113.849 21.7135 115.935 19.0962 118.861 19.0962C121.787 19.0905 123.901 21.702 123.907 24.4965ZM122.975 24.0736C122.787 21.9249 121.141 19.9648 118.867 19.9648C116.592 19.9648 114.975 21.9249 114.758 24.0736H122.975ZM137.948 19.8219V29.3253C137.948 29.5767 137.73 29.7596 137.513 29.7596C137.262 29.7596 137.079 29.571 137.079 29.3253V27.5195C136.365 28.9538 135.085 29.9767 133.467 29.9767C130.884 29.9767 129.45 27.7366 129.45 25.3708V19.7991C129.45 19.5819 129.639 19.3648 129.884 19.3648C130.136 19.3648 130.319 19.5819 130.319 19.7991V25.3708C130.319 27.2394 131.376 29.1081 133.462 29.1081C136.388 29.1081 137.073 26.3708 137.073 23.3478V19.7991C137.073 19.5476 137.325 19.2905 137.633 19.3819C137.822 19.4448 137.948 19.6276 137.948 19.8219ZM159.949 23.6964V29.2681C159.949 29.5196 159.732 29.7024 159.514 29.7024C159.263 29.7024 159.08 29.5138 159.08 29.2681V23.6964C159.08 21.8278 158.023 19.9934 155.937 19.9934C153.32 19.9934 152.325 22.7935 152.325 24.9708V29.2681C152.325 29.5196 152.108 29.7024 151.891 29.7024C151.64 29.7024 151.457 29.5138 151.457 29.2681V23.6964C151.457 21.8278 150.4 19.9934 148.314 19.9934C145.668 19.9934 144.577 22.0792 144.674 24.8508C144.674 24.9136 144.702 25.0393 144.674 25.0679V29.2567C144.674 29.4681 144.531 29.6624 144.319 29.6967C144.028 29.7424 143.799 29.5424 143.799 29.2681V19.7591C143.799 19.5476 143.942 19.3533 144.148 19.3191C144.439 19.2733 144.668 19.4733 144.668 19.7476V21.3363C145.417 19.9991 146.754 19.1248 148.308 19.1248C150.08 19.1248 151.451 20.2448 152.011 21.8963C152.725 20.2791 154.126 19.1248 155.931 19.1248C158.486 19.1248 159.949 21.3306 159.949 23.6964Z" fill="#707A8A"/>
</svg>
