<svg width="178" height="45" viewBox="0 0 178 45" fill="none" xmlns="http://www.w3.org/2000/svg">
<path fill-rule="evenodd" clip-rule="evenodd" d="M42.7729 17.2402L49.1593 13.5148V20.9656L42.7729 17.2402ZM49.1593 33.2063L40.6441 38.1735L32.1288 33.2063V24.5136L40.6441 29.4808L49.1593 24.5136V33.2063ZM32.1288 13.5148L38.5152 17.2402L32.1288 20.9656V13.5148ZM41.7085 19.0142L48.0949 22.7396L41.7085 26.465V19.0142ZM39.5796 26.465L33.1932 22.7396L39.5796 19.0142V26.465ZM48.0949 11.7407L40.6441 15.9984L33.1932 11.7407L40.6441 7.30572L48.0949 11.7407ZM30 11.0311V34.2707L40.6441 40.3023L51.2881 34.2707V11.0311L40.6441 4.99951L30 11.0311Z" fill="#707A8A"/>
<path d="M61.3802 17.7133V18.3638H64.8296V20.7686H61.3802V32.2799H58.6009V20.7883H56.2158V18.3835H58.6206V17.9893C58.6206 14.6975 60.5129 12.7067 63.9426 12.7067H64.869V14.8946H64.0215C62.3854 14.8946 61.3802 15.9196 61.3802 17.7133Z" fill="#707A8A"/>
<path d="M79.9284 18.3839V32.2803H77.3462V30.0134C76.2818 31.6298 74.6064 32.5956 72.4381 32.5956C68.4565 32.5956 65.5786 29.4813 65.5786 25.3223C65.5786 21.2026 68.4762 18.2458 72.4381 18.2458C74.6064 18.2458 76.2818 19.1526 77.3462 20.7295V18.3839H79.9284ZM77.2279 25.3223C77.2279 22.5233 75.4342 20.5521 72.7732 20.5521C70.2502 20.5521 68.3382 22.6021 68.3382 25.3223C68.3382 28.1016 70.2108 30.1318 72.7732 30.1318C75.4145 30.1121 77.2279 28.141 77.2279 25.3223Z" fill="#707A8A"/>
<path d="M96.1704 23.7055V32.2799H93.3714V24.1983C93.3714 21.9118 91.9916 20.532 89.7839 20.5517C87.6946 20.5517 86.1768 22.0892 86.1374 23.8041V32.2799H83.3384V18.3835H85.9797V20.1575C86.9258 18.9354 88.5027 18.0681 90.5724 18.0681C94.0613 18.0681 96.1704 20.2955 96.1704 23.7055Z" fill="#707A8A"/>
<path d="M100.27 27.4312V20.7885H97.7866V18.3837H99.127C100.034 18.3837 100.428 17.9303 100.428 17.0433V14.7963H103.148V18.3837H107.031V20.7885H103.05V27.1552C103.05 28.8898 103.976 29.8556 105.632 29.8556H107.189V32.2998H105.08C101.926 32.2801 100.27 30.4075 100.27 27.4312Z" fill="#707A8A"/>
<path d="M108.076 25.3416C108.076 21.1826 111.112 18.0879 115.389 18.0879C119.686 18.0879 122.722 21.1826 122.722 25.3416C122.722 29.481 119.686 32.5953 115.389 32.5953C111.112 32.5953 108.076 29.481 108.076 25.3416ZM119.923 25.3416C119.923 22.5426 118.109 20.5715 115.409 20.5715C112.708 20.5715 110.875 22.5426 110.875 25.3416C110.875 28.0815 112.728 30.092 115.409 30.092C118.07 30.092 119.923 28.1209 119.923 25.3416Z" fill="#707A8A"/>
<path d="M147.182 23.6858V32.2799H144.403V24.1786C144.403 22.0892 143.181 20.532 141.072 20.5714C138.943 20.5714 137.701 22.2272 137.662 23.6858V32.2799H134.863V24.1786C134.863 22.0892 133.641 20.532 131.532 20.5714C129.423 20.5714 128.161 22.2075 128.122 23.6858V32.2799H125.323V18.3835H127.964V20.1575C128.831 18.9945 130.369 18.0681 132.34 18.0681C134.666 18.0681 136.144 19.0143 136.933 20.6306C137.662 19.2311 139.298 18.0681 141.762 18.0681C145.251 18.0681 147.182 20.4926 147.182 23.6858Z" fill="#707A8A"/>
</svg>
