<svg width="178" height="45" viewBox="0 0 178 45" fill="none" xmlns="http://www.w3.org/2000/svg">
<path d="M159.072 22.954C158.615 25.0461 158.156 27.1381 157.675 29.3419C156.811 29.3419 155.898 29.3419 154.784 29.3419C155.056 27.7188 155.329 26.0983 155.602 24.4778C155.667 24.0906 155.759 23.7084 155.816 23.3188C156.094 21.3955 155.699 20.5294 154.421 20.2266C152.878 19.8618 151.23 20.6709 150.788 22.2815C150.244 24.2643 149.957 26.3167 149.555 28.3393C149.49 28.6693 149.406 28.9969 149.319 29.3791C148.341 29.3791 147.415 29.3791 146.361 29.3791C146.711 27.4558 147.053 25.592 147.391 23.7233C147.785 21.5444 147.383 20.5269 146.008 20.2217C144.293 19.8395 142.735 20.8098 142.251 22.7331C141.819 24.4455 141.569 26.2025 141.233 27.9397C141.142 28.4162 141.045 28.8927 140.948 29.3865C139.926 29.3865 138.995 29.3865 137.948 29.3865C138.65 25.4555 139.338 21.604 140.032 17.7028C141.033 17.7028 141.963 17.7028 142.988 17.7028C142.924 18.2636 142.864 18.7873 142.837 19.0156C144.122 18.5465 145.49 17.7921 146.936 17.5812C148.594 17.3404 149.885 18.2438 150.366 19.5243C151.915 18.8592 153.381 17.9733 154.97 17.6134C156.885 17.1791 158.236 18.2984 159.069 20.0008C159.072 20.986 159.072 21.9688 159.072 22.954Z" fill="#707A8A"/>
<path d="M118.144 29.4013C117.104 29.4013 116.223 29.4013 115.138 29.4013C115.483 27.4706 115.816 25.6143 116.148 23.7605C116.543 21.5567 116.166 20.5591 114.811 20.234C113.049 19.8096 111.456 20.8296 110.974 22.8224C110.582 24.4429 110.187 26.0883 110.081 27.7411C109.979 29.2922 109.267 29.657 107.914 29.451C107.579 29.4013 107.232 29.4113 106.748 29.3889C107.108 27.3986 107.458 25.4877 107.803 23.5744C108.155 21.6163 107.768 20.6063 106.532 20.2563C104.901 19.7923 103.231 20.6683 102.745 22.4601C102.256 24.2543 101.993 26.1106 101.628 27.9396C101.534 28.4136 101.432 28.8876 101.328 29.384C100.325 29.384 99.3971 29.384 98.335 29.384C99.0373 25.453 99.7247 21.6039 100.42 17.7052C101.422 17.7052 102.353 17.7052 103.373 17.7052C103.311 18.2511 103.251 18.7673 103.224 19.0006C104.532 18.5316 105.904 17.7871 107.356 17.5836C109.011 17.3528 110.304 18.2511 110.791 19.6434C112.141 18.9559 113.389 17.9732 114.786 17.6828C117.896 17.0351 119.799 18.8865 119.407 22.0258C119.107 24.4529 118.59 26.8527 118.144 29.4013Z" fill="#707A8A"/>
<path d="M53.2855 23.2196C53.2185 18.1743 56.9808 14.2681 61.9218 14.2508C65.828 14.2384 68.5082 16.8417 68.5355 20.6734C68.5702 25.6045 64.8105 29.4982 59.9315 29.5826C56.0278 29.6521 53.3377 27.0736 53.2855 23.2196ZM56.3454 22.892C56.3405 25.5077 57.9511 26.9843 60.5817 26.7758C63.6813 26.5326 65.9074 23.4032 65.3788 20.0331C65.1058 18.2934 63.9915 17.2338 62.2419 17.0501C58.9562 16.7027 56.3504 19.2861 56.3454 22.892Z" fill="#707A8A"/>
<path d="M73.0188 27.3218C72.5175 30.0392 72.0659 32.4812 71.6043 34.9827C70.6166 34.9827 69.6959 34.9827 68.6089 34.9827C69.6313 29.2153 70.6463 23.495 71.6712 17.7152C72.6689 17.7152 73.5921 17.7152 74.5475 17.7152C74.5475 18.2463 74.5475 18.7302 74.5475 19.0056C75.8603 18.5465 77.2079 17.8095 78.6249 17.6407C81.0346 17.3528 82.5634 18.6905 83.0299 21.0431C83.8116 25.0014 80.9304 29.1259 77.1508 29.5156C75.3988 29.6967 74.0587 29.116 73.0188 27.3218ZM79.9502 23.0682C80.0147 21.2938 79.1362 20.2316 77.5554 20.172C75.4708 20.0951 73.7187 21.7752 73.6144 23.9467C73.5276 25.7682 74.4632 26.8875 76.1036 26.9197C78.1981 26.9644 79.8683 25.2942 79.9502 23.0682Z" fill="#707A8A"/>
<path d="M126.604 25.6094C127.924 25.7434 129.193 25.1006 130.041 26.7237C130.312 27.2423 131.702 27.3093 132.585 27.3341C132.947 27.3441 133.565 26.7261 133.627 26.3291C133.687 25.9469 133.277 25.2694 132.898 25.0857C131.977 24.6366 130.947 24.4082 129.967 24.0757C128.101 23.4404 127.371 22.5966 127.381 21.1002C127.391 19.5119 128.287 18.1916 130.096 17.8913C131.602 17.6432 133.253 17.7027 134.739 18.0477C136.231 18.3951 137.012 19.6682 137.126 21.388C135.848 21.3533 134.608 22.068 133.674 20.4251C133.374 19.8965 132.032 19.8345 131.158 19.8072C130.838 19.7973 130.307 20.4723 130.227 20.8991C130.17 21.2143 130.61 21.8099 130.967 21.9712C131.952 22.4105 133.022 22.6636 134.039 23.0359C135.838 23.691 136.543 24.5993 136.496 26.1132C136.447 27.6692 135.583 28.7611 133.866 29.2674C132.051 29.8034 130.245 29.7389 128.535 28.8604C127.306 28.2226 126.592 27.2374 126.604 25.6094Z" fill="#707A8A"/>
<path d="M90.6096 26.9321C90.4632 27.771 90.3317 28.5254 90.1754 29.4262C89.406 29.4262 88.6739 29.4808 87.9518 29.4163C85.8771 29.2302 84.9092 28.1258 85.145 26.0685C85.3584 24.2172 85.7332 22.3857 86.0558 20.4376C85.6091 20.3284 85.1648 20.2217 84.5767 20.0777C84.6809 19.3183 84.7851 18.5589 84.8943 17.7524C85.4775 17.678 85.9987 17.6134 86.567 17.539C86.7506 16.6332 86.9244 15.7745 87.1155 14.829C88.0436 14.829 88.9568 14.829 90.0438 14.829C89.9297 15.7323 89.823 16.5835 89.6989 17.5712C90.5079 17.6134 91.2698 17.6531 92.198 17.7003C92.0391 18.5813 91.9001 19.3705 91.7438 20.244C90.8553 20.244 90.0761 20.244 89.148 20.244C88.8303 22.0457 88.5151 23.768 88.2273 25.4977C88.0883 26.3341 88.4258 26.8254 89.3391 26.8403C89.7287 26.8478 90.1133 26.8949 90.6096 26.9321Z" fill="#707A8A"/>
<path d="M97.6899 17.7152C96.995 21.6164 96.315 25.4357 95.6176 29.3493C94.6845 29.3493 93.7688 29.3493 92.6099 29.3493C93.3047 25.4432 93.9922 21.5717 94.6771 17.7152C95.7641 17.7152 96.6947 17.7152 97.6899 17.7152Z" fill="#707A8A"/>
<path d="M122.862 17.7126C123.869 17.7126 124.788 17.7126 125.862 17.7126C125.195 21.5171 124.557 25.2272 123.867 28.9299C123.827 29.1408 123.391 29.3964 123.12 29.4237C122.393 29.4932 121.656 29.446 120.777 29.446C121.487 25.4481 122.17 21.6064 122.862 17.7126Z" fill="#707A8A"/>
<path d="M95.9429 15.8811C95.7369 15.5883 95.119 15.0746 95.0173 14.474C94.851 13.5062 95.9876 12.6078 97.1019 12.6624C97.9854 12.7046 98.643 13.0744 98.6331 14.0819C98.6232 15.0845 97.6305 15.906 95.9429 15.8811Z" fill="#707A8A"/>
<path d="M124.192 15.8911C123.974 15.6156 123.311 15.1317 123.177 14.5311C122.971 13.6104 124.14 12.6401 125.232 12.65C126.138 12.6574 126.773 13.0818 126.838 14.0323C126.902 15.0001 125.855 15.8861 124.192 15.8911Z" fill="#707A8A"/>
<path d="M33.8862 37.0945C33.3253 37.0945 32.762 37.0945 32.2012 37.0945C32.1143 37.0747 32.0299 37.0424 31.9406 37.0375C29.9354 36.8985 28.0443 36.3575 26.2476 35.4517C19.9814 32.295 16.7378 25.1576 18.4576 18.3529C20.2171 11.3918 26.7911 6.49292 34.1245 7.04137C36.7377 7.23742 39.1524 8.02412 41.3238 9.49327C45.024 11.9973 47.2327 15.4642 47.9226 19.889C47.9921 20.3432 48.0392 20.7998 48.0963 21.2564C48.0963 21.7776 48.0963 22.3012 48.0963 22.8224C48.0764 22.9291 48.0541 23.0358 48.0367 23.1425C47.8878 24.0508 47.8109 24.9765 47.5777 25.8624C46.7116 29.1705 44.9148 31.888 42.1949 33.9676C40.1202 35.5534 37.7899 36.5635 35.1915 36.9208C34.7548 36.9804 34.3205 37.035 33.8862 37.0945ZM33.1045 20.5368C33.0747 19.4349 32.6553 18.6829 31.7569 18.2759C31.345 18.0898 30.8834 17.9608 30.4342 17.9235C28.4985 17.7647 26.8531 18.4894 26.2178 20.5516C25.9647 21.3706 25.7711 22.2169 25.647 23.0656C25.4237 24.6042 26.1285 25.6217 27.6175 25.9245C28.1684 26.0362 28.7541 26.0486 29.3149 26.0039C30.5731 25.9022 31.5658 25.3289 32.1614 24.1774C32.7719 22.9986 32.896 21.6932 33.1045 20.5368ZM36.018 23.1351C36.7724 23.1351 37.4971 23.1797 38.2118 23.1252C39.6785 23.0184 40.5867 22.2144 40.959 20.7725C41.3064 19.4324 40.7754 18.5092 39.4402 18.1469C39.2764 18.1022 39.1077 18.06 38.9389 18.0551C37.7378 18.0303 36.5342 18.0154 35.333 18.003C35.065 18.0005 34.9484 18.1643 34.8987 18.4124C34.7722 19.0304 34.6357 19.6458 34.5042 20.2613C34.1369 21.9935 33.7671 23.7232 33.4023 25.4555C33.3154 25.8649 33.3775 25.9344 33.7944 25.9369C34.1865 25.9394 34.5761 25.9394 34.9682 25.9369C35.343 25.9344 35.4422 25.85 35.5191 25.4877C35.678 24.7258 35.8418 23.9664 36.018 23.1351Z" fill="#707A8A"/>
<path d="M31.0272 20.6582C30.8063 21.5591 30.6375 22.4773 30.3496 23.3583C30.0915 24.1475 29.2999 24.5247 28.4859 24.3733C28.0417 24.2914 27.7339 23.9837 27.7637 23.5147C27.8009 22.929 27.9077 22.3458 28.0193 21.77C28.0963 21.3705 28.2055 20.9685 28.3544 20.5888C28.6671 19.7971 29.414 19.4124 30.2504 19.5762C30.7417 19.673 30.9601 20.0056 30.9527 20.6384C30.975 20.6458 30.9999 20.6533 31.0272 20.6582Z" fill="#707A8A"/>
<path d="M36.3179 21.5965C36.4593 20.9264 36.5958 20.2737 36.7472 19.564C37.3279 19.5913 37.9061 19.5962 38.4769 19.6508C38.7598 19.6781 38.9112 19.9288 38.9261 20.2439C38.9559 20.9512 38.4819 21.5245 37.7523 21.589C37.2857 21.6312 36.8142 21.5965 36.3179 21.5965Z" fill="#707A8A"/>
</svg>
