<svg width="178" height="45" viewBox="0 0 178 45" fill="none" xmlns="http://www.w3.org/2000/svg">
<path d="M150 29.7369C149.068 29.7158 148.114 29.7158 147.181 29.6947C146.969 29.6947 146.736 29.6947 146.461 29.6947C146.461 29.4835 146.461 29.3146 146.461 29.1457C146.461 27.2028 146.461 25.2812 146.461 23.3383C146.461 22.6415 146.376 22.0079 145.613 21.6912C144.934 21.3955 143.981 21.5645 143.451 22.1135C142.582 23.0005 142.306 24.0986 142.306 25.2812C142.285 26.6116 142.306 27.942 142.306 29.2724C142.306 29.4835 142.349 29.6947 142.01 29.6947C140.992 29.6947 139.975 29.6947 138.915 29.6947C138.915 26.1892 138.915 22.7259 138.915 19.2204C139.869 19.2204 140.823 19.2204 141.755 19.2415C141.861 19.2415 142.01 19.4105 142.031 19.5372C142.116 19.9173 142.158 20.3185 142.221 20.7198C142.667 20.3185 143.069 19.8962 143.514 19.5372C144.998 18.418 147.902 18.3546 149.131 19.854C149.47 20.2552 149.64 20.7831 149.873 21.2477C149.915 21.3322 149.937 21.3955 149.979 21.48C150 24.2042 150 26.9706 150 29.7369Z" fill="#707A8A"/>
<path d="M95.4224 10.7101C95.4224 16.8342 95.4224 22.9582 95.4224 29.0612C95.4224 29.2512 95.4224 29.4413 95.4224 29.6525C94.2779 29.6525 93.1545 29.6525 91.9888 29.6525C91.9888 23.3172 91.9888 17.0031 91.9888 10.689C93.1121 10.7101 94.2779 10.7101 95.4224 10.7101Z" fill="#707A8A"/>
<path d="M119.055 20.0017C119.119 19.2626 119.564 19.157 120.157 19.1993C120.92 19.2415 121.683 19.1993 122.467 19.1993C122.489 19.3048 122.51 19.3893 122.51 19.4949C122.51 22.937 122.531 26.3792 122.51 29.8213C122.489 31.6163 121.556 32.9256 120.094 33.8759C117.381 35.6287 113.226 35.4386 110.683 32.9045C111.319 32.1654 111.976 31.4052 112.569 30.7294C113.353 31.1306 114.074 31.6163 114.858 31.8697C116.151 32.271 117.402 32.0809 118.461 31.1306C118.907 30.7294 119.013 30.1803 119.055 29.6313C119.076 29.2089 119.055 28.8077 118.991 28.3642C118.313 29.1034 117.529 29.5679 116.575 29.8002C113.141 30.6449 109.92 28.4065 109.559 24.901C109.263 21.9868 111.297 19.2204 114.18 18.7769C115.918 18.5235 117.571 18.7769 119.055 20.0017ZM119.076 24.3519C119.097 24.3519 119.119 24.3519 119.14 24.3519C119.055 23.824 119.097 23.2538 118.864 22.8103C118.334 21.8178 117.338 21.5222 116.3 21.4377C115.028 21.3321 113.671 22.1768 113.29 23.2749C112.845 24.5842 113.247 25.9146 114.35 26.7382C115.388 27.4984 117.041 27.4773 118.144 26.696C118.758 26.2525 119.182 25.7457 119.076 24.9221C119.055 24.732 119.076 24.542 119.076 24.3519Z" fill="#707A8A"/>
<path d="M63.7354 18.9247C64.6467 18.9247 65.5581 18.9247 66.4695 18.9458C66.5755 18.9458 66.7027 19.1359 66.7451 19.2415C66.8511 19.516 66.8934 19.8116 66.9782 20.1495C68.6315 18.9247 70.4331 18.3334 72.4466 18.7769C73.5488 19.0303 74.4602 19.6216 75.1384 20.4663C76.8552 22.5992 76.834 26.1891 75.096 28.1742C74.0998 29.3145 72.7221 29.7791 71.2597 29.948C69.776 30.117 68.4195 29.7791 67.169 28.8077C67.169 30.8139 67.169 32.7356 67.169 34.6784C66.0032 34.6784 64.8799 34.6784 63.7354 34.6784C63.7354 29.4412 63.7354 24.2252 63.7354 18.9247ZM67.2114 24.373C67.2114 24.542 67.2326 24.732 67.2114 24.901C67.0842 26.0413 67.6989 26.6959 68.6739 27.1394C70.1151 27.7729 72.1711 26.9916 72.6798 25.5767C73.1037 24.3941 72.8917 23.2749 72.0439 22.3669C71.2385 21.501 70.1787 21.4166 69.0978 21.67C67.8472 21.9234 67.2114 22.747 67.2114 23.9929C67.2114 24.1196 67.2114 24.2463 67.2114 24.373Z" fill="#707A8A"/>
<path d="M130.691 29.9059C129.356 29.927 128.106 29.6525 126.982 28.9345C125.456 27.9631 124.757 26.5482 124.608 24.7744C124.333 21.3533 126.749 19.0515 129.928 18.6925C131.56 18.5025 133.108 18.777 134.464 19.7062C136.181 20.9099 136.902 22.6204 136.796 24.6688C136.647 27.5619 134.507 29.6314 131.391 29.8848C131.158 29.927 130.925 29.9059 130.691 29.9059ZM133.256 24.3098C133.235 23.085 132.62 22.0291 131.709 21.6912C130.755 21.3533 129.822 21.4167 129.017 22.0713C128.148 22.7893 127.872 23.7607 128.084 24.8377C128.445 26.7383 129.928 27.6463 131.645 27.0339C132.641 26.6961 133.277 25.5979 133.256 24.3098Z" fill="#707A8A"/>
<path d="M83.8498 30.0115C82.1542 29.9481 80.9884 29.6314 79.9287 28.9345C78.4662 27.9842 77.8091 26.5693 77.682 24.9222C77.5124 22.8104 78.1695 21.0154 80.0134 19.8117C82.3025 18.3124 85.5666 18.3546 87.6861 19.9384C90.3143 21.8601 90.6323 25.8936 88.3432 28.2376C86.9867 29.6314 85.2699 29.9903 83.8498 30.0115ZM86.372 24.3309C86.3508 24.1197 86.3508 23.9296 86.3296 23.7185C86.0541 21.9023 84.1889 20.9098 82.5781 21.7123C81.3911 22.3036 81.0944 23.3806 81.158 24.5843C81.2428 26.506 82.9172 27.6885 84.6976 27.0973C85.715 26.7171 86.372 25.6824 86.372 24.3309Z" fill="#707A8A"/>
<path d="M96.8213 19.2205C97.6267 19.2205 98.3473 19.2205 99.068 19.2205C99.2375 19.2205 99.4283 19.2205 99.5979 19.2205C100.806 19.2205 100.764 19.2416 101.251 20.4031C101.951 22.0503 102.714 23.6552 103.498 25.3446C103.604 25.1756 103.667 25.0912 103.71 24.9856C104.536 23.1906 105.363 21.3956 106.168 19.6006C106.296 19.305 106.486 19.1783 106.825 19.1994C107.673 19.2205 108.521 19.1994 109.454 19.1994C109.093 19.9807 108.775 20.7199 108.457 21.4379C107.207 24.2465 105.956 27.034 104.706 29.8215C104.049 31.2997 103.371 32.7779 102.714 34.2773C102.565 34.6152 102.374 34.7841 101.972 34.763C101.06 34.7208 100.149 34.7419 99.1528 34.7419C99.3859 34.2139 99.5979 33.7705 99.8098 33.3059C100.403 32.0388 100.997 30.7929 101.548 29.5259C101.633 29.3358 101.633 29.019 101.548 28.829C100.213 26.0837 98.8348 23.3595 97.4783 20.6354C97.2876 20.213 97.0756 19.7485 96.8213 19.2205Z" fill="#707A8A"/>
<path d="M51.9507 17.4676C51.3784 17.1297 50.6366 17.1297 49.9583 17.4676L45.3377 20.1918L42.2008 21.9234L37.665 24.6265C37.0928 24.9643 36.3509 24.9643 35.6727 24.6265L32.1331 22.4936C31.5608 22.1557 31.1369 21.5011 31.1369 20.762V16.644C31.1369 15.9894 31.476 15.3348 32.1331 14.9124L35.6939 12.864C36.2662 12.5261 37.008 12.5261 37.6862 12.864L41.247 14.9969C41.7981 15.3348 42.2008 15.9894 42.2008 16.7285V19.4527L45.3377 17.6366V14.8491C45.3377 14.1944 44.9986 13.5398 44.3416 13.1174L37.7498 9.25292C37.1776 8.91504 36.4357 8.91504 35.7575 9.25292L28.9962 13.2019C28.3391 13.5187 28 14.1733 28 14.8491V22.5781C28 23.2327 28.3391 23.8873 28.9962 24.3097L35.6939 28.1742C36.2662 28.5121 37.008 28.5121 37.6862 28.1742L42.2008 25.5345L45.3377 23.7184L49.8735 21.0787C50.4458 20.7408 51.1876 20.7408 51.8659 21.0787L55.4267 23.1271C55.999 23.465 56.4229 24.1196 56.4229 24.8588V28.9767C56.4229 29.6313 56.0837 30.2859 55.4267 30.7083L51.9507 32.7567C51.3784 33.0946 50.6366 33.0946 49.9583 32.7567L46.3975 30.7083C45.8252 30.3704 45.4013 29.7158 45.4013 28.9767V26.3581L42.2856 28.1742V30.8984C42.2856 31.553 42.6247 32.2076 43.2818 32.63L49.9795 36.4945C50.5518 36.8324 51.2936 36.8324 51.9719 36.4945L58.6696 32.63C59.2418 32.2921 59.6657 31.6375 59.6657 30.8984V23.0849C59.6657 22.4302 59.3266 21.7756 58.6696 21.3532L51.9507 17.4676Z" fill="#707A8A"/>
</svg>
