<svg width="380" height="32" viewBox="0 0 380 32" fill="none" xmlns="http://www.w3.org/2000/svg">
<g opacity="0.6">
<path opacity="0.6" d="M37.5972 5.21289L34.4625 6.63855L37.5972 8.49056L40.7307 6.63855L37.5972 5.21289Z" fill="#707A8A"/>
</g>
<g opacity="0.45">
<path opacity="0.45" d="M34.4625 6.63851L37.5972 8.49053V1.43738L34.4625 6.63851Z" fill="#707A8A"/>
</g>
<g opacity="0.8">
<path opacity="0.8" d="M37.5972 1.43738V8.49053L40.7307 6.63851L37.5972 1.43738Z" fill="#707A8A"/>
</g>
<g opacity="0.45">
<path opacity="0.45" d="M34.4625 7.23242L37.5972 11.6486V9.08441L34.4625 7.23242Z" fill="#707A8A"/>
</g>
<g opacity="0.8">
<path opacity="0.8" d="M37.5972 9.08441V11.6486L40.7331 7.23242L37.5972 9.08441Z" fill="#707A8A"/>
</g>
<path d="M45.8395 7.04272C45.8395 7.11336 45.7804 7.17086 45.7097 7.17086H43.2092C43.2716 7.78861 43.7366 8.35214 44.3904 8.35214C44.8373 8.35214 45.1692 8.18125 45.419 7.82475C45.4551 7.77544 45.5093 7.74425 45.5783 7.77381C45.6161 7.79025 45.6424 7.82475 45.649 7.86417C45.6555 7.90525 45.644 7.92825 45.6325 7.95125C45.3811 8.38992 44.8801 8.60514 44.3888 8.60514C43.5476 8.60514 42.9479 7.85267 42.9479 7.04764C42.9479 6.24261 43.5476 5.49014 44.3888 5.49014C45.23 5.4885 45.8379 6.2393 45.8395 7.04272ZM45.5717 6.92114C45.5175 6.30339 45.0443 5.73986 44.3904 5.73986C43.7366 5.73986 43.2716 6.30339 43.2092 6.92114H45.5717ZM48.874 5.55091C48.9463 5.55091 48.9989 5.61336 48.9989 5.67577C48.9989 5.74808 48.9447 5.80064 48.874 5.80064H48.2037V8.431C48.2037 8.49342 48.1495 8.55586 48.0788 8.55586C48.0066 8.55586 47.954 8.49342 47.954 8.431V5.80064H47.31C47.2377 5.80064 47.1851 5.74644 47.1851 5.67577C47.1851 5.61336 47.2393 5.55091 47.31 5.55091H47.954V4.58816C47.954 4.52736 47.9951 4.47152 48.0542 4.46166C48.138 4.44852 48.2037 4.50602 48.2037 4.58488V5.55091H48.874ZM52.9633 6.82255V8.41619C52.9633 8.4885 52.9009 8.54106 52.8384 8.54106C52.7662 8.54106 52.7136 8.48686 52.7136 8.41619V6.82255C52.7136 6.2853 52.4096 5.74808 51.81 5.74808C51.0411 5.74808 50.7092 6.42003 50.7536 7.10842C50.7536 7.1265 50.7618 7.207 50.7618 7.21522V8.41128C50.7618 8.47206 50.7207 8.52792 50.6615 8.53778C50.5778 8.55092 50.512 8.49342 50.512 8.41456V3.18016C50.512 3.11771 50.5663 3.0553 50.6369 3.0553C50.7092 3.0553 50.7618 3.11771 50.7618 3.18016V6.14239C50.977 5.75794 51.3614 5.49836 51.8083 5.49836C52.5427 5.49836 52.9633 6.14239 52.9633 6.82255ZM57.4469 7.04272C57.4469 7.11336 57.3877 7.17086 57.3171 7.17086H54.8149C54.8773 7.78861 55.3423 8.35214 55.9962 8.35214C56.4431 8.35214 56.7749 8.18125 57.0247 7.82475C57.0608 7.77544 57.115 7.74425 57.184 7.77381C57.2218 7.79025 57.2481 7.82475 57.2547 7.86417C57.2612 7.90525 57.2497 7.92825 57.2382 7.95125C56.9869 8.38992 56.4858 8.60514 55.9945 8.60514C55.1534 8.60514 54.5537 7.85267 54.5537 7.04764C54.5537 6.24261 55.1534 5.49014 55.9945 5.49014C56.8374 5.4885 57.4452 6.2393 57.4469 7.04272ZM57.1774 6.92114C57.1232 6.30339 56.6501 5.73986 55.9962 5.73986C55.3423 5.73986 54.8773 6.30339 54.8149 6.92114H57.1774ZM60.516 5.66758C60.516 5.74808 60.4715 5.79244 60.3993 5.8023C59.6647 5.90908 59.3347 6.50875 59.3347 7.207V8.40306C59.3347 8.46386 59.2936 8.5197 59.2344 8.52956C59.1507 8.54272 59.0849 8.4852 59.0849 8.40633V5.68072C59.0849 5.61991 59.126 5.56405 59.1852 5.55422C59.2689 5.54105 59.3347 5.59855 59.3347 5.67741V6.23275C59.54 5.88444 59.9522 5.55255 60.3812 5.55255C60.4436 5.55091 60.516 5.59691 60.516 5.66758ZM64.6233 7.04272C64.6233 7.11336 64.564 7.17086 64.4933 7.17086H61.9929C62.0553 7.78861 62.5202 8.35214 63.1743 8.35214C63.621 8.35214 63.9528 8.18125 64.2026 7.82475C64.2389 7.77544 64.2929 7.74425 64.3619 7.77381C64.3999 7.79025 64.426 7.82475 64.4326 7.86417C64.4393 7.90525 64.4278 7.92825 64.4163 7.95125C64.165 8.38992 63.6639 8.60514 63.1725 8.60514C62.3313 8.60514 61.7316 7.85267 61.7316 7.04764C61.7316 6.24261 62.3313 5.49014 63.1725 5.49014C64.0138 5.4885 64.6215 6.2393 64.6233 7.04272ZM64.3553 6.92114C64.3013 6.30339 63.828 5.73986 63.1743 5.73986C62.5202 5.73986 62.0553 6.30339 61.9929 6.92114H64.3553ZM68.66 5.69877V8.431C68.66 8.50328 68.5974 8.55586 68.535 8.55586C68.4628 8.55586 68.4102 8.50164 68.4102 8.431V7.91183C68.2049 8.32419 67.8369 8.61828 67.3718 8.61828C66.6291 8.61828 66.2169 7.97425 66.2169 7.29408V5.69222C66.2169 5.62977 66.2712 5.56736 66.3416 5.56736C66.4141 5.56736 66.4667 5.62977 66.4667 5.69222V7.29408C66.4667 7.83131 66.7706 8.36856 67.3703 8.36856C68.2115 8.36856 68.4085 7.58158 68.4085 6.71247V5.69222C68.4085 5.61991 68.4809 5.546 68.5695 5.57227C68.6238 5.59036 68.66 5.64291 68.66 5.69877ZM74.9853 6.81269V8.41456C74.9853 8.48686 74.923 8.53942 74.8603 8.53942C74.7881 8.53942 74.7355 8.4852 74.7355 8.41456V6.81269C74.7355 6.27547 74.4316 5.74808 73.8319 5.74808C73.0795 5.74808 72.7934 6.55311 72.7934 7.17908V8.41456C72.7934 8.48686 72.731 8.53942 72.6687 8.53942C72.5965 8.53942 72.5439 8.4852 72.5439 8.41456V6.81269C72.5439 6.27547 72.24 5.74808 71.6403 5.74808C70.8795 5.74808 70.5659 6.34775 70.5938 7.14458C70.5938 7.16264 70.6018 7.19878 70.5938 7.207V8.41128C70.5938 8.47206 70.5527 8.52792 70.4917 8.53778C70.408 8.55092 70.3422 8.49342 70.3422 8.41456V5.68072C70.3422 5.61991 70.3833 5.56405 70.4425 5.55422C70.5262 5.54105 70.592 5.59855 70.592 5.67741V6.13416C70.8074 5.74972 71.1918 5.49836 71.6385 5.49836C72.148 5.49836 72.5422 5.82036 72.7032 6.29516C72.9084 5.83022 73.3112 5.49836 73.8302 5.49836C74.5647 5.49836 74.9853 6.13253 74.9853 6.81269Z" fill="#707A8A"/>
<path d="M108.729 7.20099V7.21648C108.729 7.82101 108.232 8.12329 107.487 8.11552H105.911V4.8139H107.448C108.123 4.8139 108.542 5.14714 108.542 5.66643V5.67419C108.542 6.04618 108.341 6.25546 108.108 6.38722C108.488 6.54221 108.729 6.75921 108.729 7.20099ZM107.293 6.14695C107.619 6.14695 107.82 6.04618 107.82 5.79819V5.78269C107.82 5.56566 107.65 5.44166 107.339 5.44166H106.617V6.13919H107.293V6.14695ZM107.487 7.48774C107.805 7.48774 107.999 7.37924 107.999 7.13124V7.11574C107.999 6.89097 107.836 6.75921 107.463 6.75921H106.617V7.48774H107.487ZM110.258 4.82164V8.12329H109.528V4.82164H110.258ZM114.178 4.82164V8.12329H113.557L111.95 6.02295V8.12329H111.228V4.82164H111.904L113.456 6.85998V4.82164H114.178ZM116.786 4.79838L118.207 8.12329H117.43L117.128 7.37924H115.73L115.428 8.12329H114.698L116.119 4.79838H116.786ZM116.002 6.73595H116.879L116.445 5.66643L116.002 6.73595ZM121.684 4.82164V8.12329H121.063L119.456 6.02295V8.12329H118.735V4.82164H119.41L120.962 6.85998V4.82164H121.684ZM124.983 7.12348L125.449 7.58851C125.108 7.95277 124.727 8.17754 124.091 8.17754C123.12 8.17754 122.391 7.42575 122.391 6.47246V6.45696C122.391 5.51917 123.105 4.75189 124.122 4.75189C124.75 4.75189 125.123 4.96113 125.426 5.26341L124.96 5.79819C124.704 5.56569 124.44 5.42616 124.114 5.42616C123.555 5.42616 123.151 5.89119 123.151 6.45696V6.47246C123.151 7.03823 123.547 7.511 124.114 7.511C124.494 7.511 124.727 7.35601 124.983 7.12348ZM128.562 7.47224V8.11552H126.039V4.8139H128.539V5.46492H126.761V6.13919H128.329V6.79023H126.761V7.48774L128.562 7.47224ZM101.479 3.44983L99.8717 4.37213L100.462 4.71313L101.479 4.13187L102.495 4.71313L103.085 4.37213L101.479 3.44983ZM102.495 5.20139L103.085 5.54243V6.22446L102.068 6.80573V7.96827L101.479 8.3093L100.889 7.96827V6.80573L99.8717 6.22446V5.54243L100.462 5.20139L101.479 5.78269L102.495 5.20139ZM103.085 6.71272V7.39473L102.495 7.73576V7.05373L103.085 6.71272ZM102.488 8.21629L103.505 7.635V6.47246L104.094 6.13146V7.98376L102.488 8.90606V8.21629ZM103.505 5.30216L102.915 4.96116L103.505 4.62013L104.094 4.96116V5.64317L103.505 5.9842V5.30216ZM100.889 9.14633V8.46429L101.479 8.80529L102.068 8.46429V9.14633L101.479 9.48733L100.889 9.14633ZM100.462 7.73576L99.8717 7.39473V6.71272L100.462 7.05373V7.73576ZM101.479 5.30216L100.889 4.96116L101.479 4.62013L102.068 4.96116L101.479 5.30216ZM100.042 4.96116L99.4525 5.30216V5.9842L98.8625 5.64317V4.96116L99.4525 4.62013L100.042 4.96116ZM98.8625 6.12369L99.4525 6.4647V7.62726L100.469 8.20853V8.89057L98.8625 7.96827V6.12369ZM130.471 6.50345C130.471 7.45675 131.193 8.20853 132.156 8.20853C132.785 8.20853 133.157 7.97603 133.499 7.6195L133.126 7.23974C132.839 7.50326 132.583 7.66602 132.179 7.66602C131.55 7.66602 131.085 7.139 131.085 6.48022C131.085 5.82918 131.543 5.3099 132.179 5.3099C132.56 5.3099 132.839 5.47268 133.103 5.72068L133.476 5.2944C133.157 4.99215 132.792 4.78288 132.179 4.78288C131.178 4.79064 130.471 5.55792 130.471 6.50345ZM134.593 8.15428V6.75921H136.177V8.15428H136.759V4.84489H136.177V6.22446H134.593V4.84489H134.011V8.15428H134.593ZM140.066 8.15428H140.679L139.212 4.82164H138.676L137.217 8.15428H137.815L138.156 7.35601H139.724L140.066 8.15428ZM138.374 6.83672L138.94 5.51141L139.515 6.83672H138.374ZM141.735 8.15428V4.84489H141.153V8.15428H141.735ZM145.438 4.84489H144.855V7.13124L143.078 4.84489H142.542V8.15428H143.117V5.79819L144.949 8.15428H145.438V4.84489Z" fill="#707A8A"/>
<path d="M207.25 8.54937C206.982 8.5433 206.708 8.5433 206.44 8.53724C206.379 8.53724 206.312 8.53724 206.233 8.53724C206.233 8.47652 206.233 8.42796 206.233 8.3794C206.233 7.82082 206.233 7.26836 206.233 6.70977C206.233 6.50944 206.208 6.32728 205.989 6.23623C205.794 6.15122 205.52 6.19981 205.367 6.35764C205.117 6.61266 205.038 6.92836 205.038 7.26836C205.032 7.65085 205.038 8.03334 205.038 8.41583C205.038 8.47652 205.05 8.53724 204.953 8.53724C204.66 8.53724 204.368 8.53724 204.063 8.53724C204.063 7.52941 204.063 6.53371 204.063 5.52588C204.337 5.52588 204.612 5.52588 204.88 5.53194C204.91 5.53194 204.953 5.58053 204.959 5.61696C204.983 5.72624 204.995 5.84158 205.014 5.95695C205.142 5.84158 205.257 5.72017 205.385 5.61696C205.812 5.29519 206.647 5.27696 207 5.70804C207.098 5.82338 207.146 5.97515 207.213 6.10873C207.226 6.13302 207.232 6.15122 207.244 6.17551C207.25 6.95872 207.25 7.75406 207.25 8.54937Z" fill="#707A8A"/>
<path d="M191.559 3.07919C191.559 4.83987 191.559 6.60052 191.559 8.35513C191.559 8.40975 191.559 8.46441 191.559 8.52513C191.23 8.52513 190.907 8.52513 190.572 8.52513C190.572 6.70373 190.572 4.88842 190.572 3.07312C190.895 3.07919 191.23 3.07919 191.559 3.07919Z" fill="#707A8A"/>
<path d="M198.353 5.75046C198.372 5.53797 198.5 5.50761 198.67 5.51977C198.89 5.5319 199.109 5.51977 199.334 5.51977C199.341 5.5501 199.347 5.57439 199.347 5.60475C199.347 6.59436 199.353 7.58399 199.347 8.57359C199.341 9.08966 199.072 9.46608 198.652 9.73929C197.872 10.2432 196.678 10.1886 195.946 9.46001C196.129 9.24752 196.318 9.02897 196.489 8.83467C196.714 8.95002 196.921 9.08966 197.147 9.16251C197.518 9.27788 197.878 9.22323 198.183 8.95002C198.311 8.83467 198.341 8.67681 198.353 8.51897C198.359 8.39753 198.353 8.28218 198.335 8.15468C198.14 8.3672 197.915 8.50074 197.64 8.56753C196.653 8.81038 195.727 8.16684 195.623 7.15901C195.538 6.32118 196.123 5.52584 196.952 5.39833C197.451 5.32548 197.927 5.39833 198.353 5.75046ZM198.359 7.00114C198.365 7.00114 198.372 7.00114 198.378 7.00114C198.353 6.84937 198.365 6.68544 198.298 6.55793C198.146 6.27259 197.86 6.1876 197.561 6.16331C197.196 6.13295 196.805 6.3758 196.696 6.6915C196.568 7.06793 196.684 7.45042 197.001 7.6872C197.299 7.90576 197.774 7.89969 198.091 7.67507C198.268 7.54756 198.39 7.40186 198.359 7.16507C198.353 7.11042 198.359 7.0558 198.359 7.00114Z" fill="#707A8A"/>
<path d="M182.449 5.44089C182.711 5.44089 182.973 5.44089 183.235 5.44696C183.266 5.44696 183.302 5.50161 183.314 5.53197C183.345 5.61089 183.357 5.69588 183.381 5.79302C183.857 5.44089 184.375 5.27089 184.953 5.3984C185.27 5.47125 185.532 5.64125 185.727 5.8841C186.221 6.49731 186.215 7.52941 185.715 8.10012C185.429 8.42796 185.033 8.56153 184.612 8.61009C184.186 8.65868 183.796 8.56153 183.436 8.28225C183.436 8.85904 183.436 9.41153 183.436 9.97008C183.101 9.97008 182.778 9.97008 182.449 9.97008C182.449 8.46439 182.449 6.96479 182.449 5.44089ZM183.448 7.00728C183.448 7.05587 183.454 7.11049 183.448 7.15908C183.412 7.48691 183.588 7.67511 183.869 7.80262C184.283 7.98475 184.874 7.76013 185.021 7.35334C185.142 7.01334 185.081 6.69157 184.838 6.43052C184.606 6.18158 184.301 6.15731 183.991 6.23017C183.631 6.30302 183.448 6.5398 183.448 6.898C183.448 6.93443 183.448 6.97085 183.448 7.00728Z" fill="#707A8A"/>
<path d="M201.699 8.59796C201.315 8.60402 200.955 8.52511 200.632 8.31868C200.194 8.0394 199.993 7.63262 199.95 7.12265C199.871 6.13909 200.565 5.47732 201.479 5.37411C201.949 5.31948 202.394 5.3984 202.783 5.66554C203.277 6.01161 203.484 6.50338 203.454 7.09229C203.411 7.92406 202.796 8.51904 201.9 8.59189C201.833 8.60402 201.766 8.59796 201.699 8.59796ZM202.436 6.98908C202.43 6.63695 202.253 6.33338 201.991 6.23623C201.717 6.13909 201.449 6.15731 201.217 6.34551C200.968 6.55194 200.888 6.83121 200.949 7.14085C201.053 7.68727 201.479 7.94832 201.973 7.77226C202.259 7.67514 202.442 7.35941 202.436 6.98908Z" fill="#707A8A"/>
<path d="M188.232 8.62834C187.744 8.61012 187.409 8.51907 187.105 8.31871C186.684 8.0455 186.495 7.63871 186.459 7.16517C186.41 6.55803 186.599 6.04197 187.129 5.6959C187.787 5.26485 188.725 5.27699 189.335 5.73233C190.09 6.28482 190.182 7.44445 189.524 8.11835C189.134 8.51907 188.64 8.62225 188.232 8.62834ZM188.957 6.99517C188.951 6.93445 188.951 6.8798 188.945 6.81911C188.866 6.29695 188.329 6.01161 187.866 6.24232C187.525 6.41232 187.44 6.72196 187.458 7.06802C187.482 7.62051 187.964 7.96048 188.476 7.79051C188.768 7.68121 188.957 7.38373 188.957 6.99517Z" fill="#707A8A"/>
<path d="M191.961 5.526C192.193 5.526 192.4 5.526 192.607 5.526C192.656 5.526 192.711 5.526 192.759 5.526C193.107 5.526 193.095 5.53207 193.235 5.866C193.436 6.33957 193.655 6.80098 193.881 7.28668C193.911 7.23809 193.929 7.21383 193.942 7.18347C194.179 6.6674 194.417 6.15134 194.648 5.63528C194.685 5.55029 194.74 5.51387 194.837 5.51993C195.081 5.526 195.325 5.51993 195.593 5.51993C195.489 5.74456 195.398 5.95708 195.306 6.1635C194.947 6.97098 194.587 7.77238 194.228 8.57379C194.039 8.99877 193.844 9.42375 193.655 9.85483C193.613 9.95198 193.558 10.0005 193.442 9.99447C193.18 9.98234 192.918 9.9884 192.632 9.9884C192.699 9.8366 192.759 9.70913 192.82 9.57555C192.991 9.21126 193.162 8.85307 193.32 8.4888C193.345 8.43415 193.345 8.34307 193.32 8.28844C192.936 7.49917 192.54 6.71596 192.15 5.93278C192.095 5.81134 192.034 5.6778 191.961 5.526Z" fill="#707A8A"/>
<path d="M179.061 5.02198C178.896 4.92483 178.683 4.92483 178.488 5.02198L177.16 5.80519L176.258 6.30302L174.954 7.08016C174.789 7.17728 174.576 7.17728 174.381 7.08016L173.363 6.46695C173.199 6.36981 173.077 6.18161 173.077 5.96912V4.78519C173.077 4.597 173.174 4.4088 173.363 4.28736L174.387 3.69844C174.552 3.6013 174.765 3.6013 174.96 3.69844L175.984 4.31165C176.142 4.4088 176.258 4.597 176.258 4.80949V5.59269L177.16 5.07057V4.26916C177.16 4.08093 177.062 3.89274 176.873 3.7713L174.978 2.66026C174.814 2.56312 174.6 2.56312 174.405 2.66026L172.461 3.79559C172.273 3.88667 172.175 4.07487 172.175 4.26916V6.49125C172.175 6.67944 172.273 6.86764 172.461 6.98908L174.387 8.10013C174.552 8.19727 174.765 8.19727 174.96 8.10013L176.258 7.34121L177.16 6.81908L178.464 6.06017C178.628 5.96302 178.841 5.96302 179.037 6.06017L180.06 6.64908C180.225 6.74623 180.347 6.93443 180.347 7.14695V8.33084C180.347 8.51904 180.249 8.70724 180.06 8.82868L179.061 9.41759C178.896 9.51474 178.683 9.51474 178.488 9.41759L177.464 8.82868C177.3 8.73153 177.178 8.54334 177.178 8.33084V7.578L176.282 8.10013V8.88333C176.282 9.07153 176.38 9.25973 176.569 9.38117L178.494 10.4922C178.659 10.5894 178.872 10.5894 179.067 10.4922L180.993 9.38117C181.157 9.28402 181.279 9.09582 181.279 8.88333V6.63695C181.279 6.44873 181.181 6.26053 180.993 6.13909L179.061 5.02198Z" fill="#707A8A"/>
<path fill-rule="evenodd" clip-rule="evenodd" d="M243.985 4.95658L245.821 3.88552V6.02763L243.985 4.95658ZM245.821 9.54683L243.373 10.9749L240.924 9.54683V7.04768L243.373 8.47575L245.821 7.04768V9.54683ZM240.924 3.88552L242.761 4.95658L240.924 6.02763V3.88552ZM243.679 5.4666L245.515 6.53765L243.679 7.60871V5.4666ZM243.067 7.60871L241.23 6.53765L243.067 5.4666V7.60871ZM245.515 3.37547L243.373 4.59956L241.23 3.37547L243.373 2.10041L245.515 3.37547ZM240.312 3.17146V9.85285L243.373 11.5869L246.433 9.85285V3.17146L243.373 1.43738L240.312 3.17146Z" fill="#707A8A"/>
<path d="M249.334 5.0926V5.27961H250.326V5.97099H249.334V9.28049H248.535V5.97666H247.85V5.28528H248.541V5.17195C248.541 4.22555 249.085 3.6532 250.071 3.6532H250.337V4.28222H250.094C249.623 4.28222 249.334 4.57691 249.334 5.0926Z" fill="#707A8A"/>
<path d="M254.667 5.2854V9.28062H253.924V8.62891C253.618 9.09363 253.137 9.37129 252.513 9.37129C251.369 9.37129 250.541 8.47591 250.541 7.28019C250.541 6.09578 251.374 5.24573 252.513 5.24573C253.137 5.24573 253.618 5.50643 253.924 5.95979V5.2854H254.667ZM253.89 7.28019C253.89 6.47548 253.375 5.90879 252.61 5.90879C251.884 5.90879 251.335 6.49814 251.335 7.28019C251.335 8.07924 251.873 8.66292 252.61 8.66292C253.369 8.65726 253.89 8.09057 253.89 7.28019Z" fill="#707A8A"/>
<path d="M259.336 6.81545V9.28059H258.532V6.95713C258.532 6.29977 258.135 5.90307 257.5 5.90874C256.9 5.90874 256.463 6.35077 256.452 6.8438V9.28059H255.647V5.28538H256.407V5.7954C256.679 5.44405 257.132 5.1947 257.727 5.1947C258.73 5.1947 259.336 5.83508 259.336 6.81545Z" fill="#707A8A"/>
<path d="M260.515 7.88656V5.97679H259.801V5.28541H260.187C260.447 5.28541 260.561 5.15505 260.561 4.90004V4.25403H261.343V5.28541H262.459V5.97679H261.314V7.80721C261.314 8.30591 261.581 8.58358 262.057 8.58358H262.504V9.28629H261.898C260.991 9.28062 260.515 8.74225 260.515 7.88656Z" fill="#707A8A"/>
<path d="M262.759 7.28576C262.759 6.09004 263.632 5.20032 264.862 5.20032C266.097 5.20032 266.97 6.09004 266.97 7.28576C266.97 8.47583 266.097 9.37119 264.862 9.37119C263.632 9.37119 262.759 8.47583 262.759 7.28576ZM266.165 7.28576C266.165 6.48104 265.644 5.91435 264.868 5.91435C264.091 5.91435 263.564 6.48104 263.564 7.28576C263.564 8.07348 264.097 8.6515 264.868 8.6515C265.633 8.6515 266.165 8.0848 266.165 7.28576Z" fill="#707A8A"/>
<path d="M274.002 6.80979V9.28059H273.203V6.95147C273.203 6.35077 272.852 5.90307 272.246 5.9144C271.634 5.9144 271.276 6.39044 271.265 6.80979V9.28059H270.461V6.95147C270.461 6.35077 270.109 5.90307 269.503 5.9144C268.897 5.9144 268.534 6.38478 268.522 6.80979V9.28059H267.718V5.28538H268.477V5.7954C268.726 5.46104 269.168 5.1947 269.735 5.1947C270.404 5.1947 270.829 5.46673 271.056 5.93142C271.265 5.52906 271.736 5.1947 272.444 5.1947C273.447 5.1947 274.002 5.89175 274.002 6.80979Z" fill="#707A8A"/>
<path d="M312.52 8.03824L311.507 9.12499C311.485 9.14859 311.458 9.16743 311.429 9.18031C311.399 9.19321 311.367 9.19988 311.335 9.19991H306.531C306.508 9.19991 306.485 9.19321 306.466 9.18065C306.447 9.16809 306.432 9.15023 306.423 9.12922C306.414 9.10823 306.411 9.085 306.415 9.0624C306.418 9.0398 306.429 9.01882 306.444 9.002L307.457 7.91528C307.479 7.89167 307.505 7.87284 307.535 7.85993C307.564 7.84705 307.596 7.84038 307.628 7.84035H312.433C312.456 7.83987 312.479 7.84625 312.498 7.85867C312.518 7.87109 312.533 7.889 312.542 7.91016C312.552 7.93132 312.555 7.95475 312.551 7.97755C312.547 8.00035 312.536 8.02145 312.52 8.03824ZM311.507 5.84933C311.485 5.82581 311.458 5.80707 311.429 5.79419C311.399 5.78131 311.367 5.77455 311.335 5.77441H306.531C306.508 5.77441 306.485 5.78111 306.466 5.79367C306.447 5.80621 306.432 5.82409 306.423 5.8451C306.414 5.86609 306.411 5.88932 306.415 5.91189C306.418 5.93449 306.429 5.95548 306.444 5.97229L307.457 7.05962C307.479 7.08311 307.505 7.10188 307.535 7.11476C307.564 7.12764 307.596 7.13437 307.628 7.13454H312.433C312.456 7.13443 312.478 7.12764 312.497 7.11505C312.516 7.10243 312.531 7.08457 312.54 7.06359C312.549 7.0426 312.552 7.01943 312.548 6.99689C312.545 6.97435 312.534 6.95342 312.519 6.93663L311.507 5.84933ZM306.531 5.0686H311.335C311.367 5.06857 311.399 5.06187 311.429 5.04899C311.458 5.03611 311.485 5.01725 311.507 4.99364L312.52 3.90692C312.536 3.89013 312.547 3.869 312.551 3.84623C312.555 3.82343 312.552 3.79997 312.542 3.77881C312.533 3.75768 312.518 3.73974 312.498 3.72732C312.479 3.7149 312.456 3.70855 312.433 3.70901H307.628C307.596 3.70904 307.564 3.71571 307.535 3.72862C307.505 3.7415 307.479 3.76033 307.457 3.78393L306.444 4.87068C306.429 4.8875 306.418 4.90849 306.415 4.93108C306.411 4.95365 306.414 4.97688 306.423 4.9979C306.432 5.01889 306.447 5.03677 306.466 5.0493C306.485 5.06187 306.508 5.06857 306.531 5.0686Z" fill="#707A8A"/>
<path d="M318.378 6.03115H315.808V5.18466H319.046V4.33815H315.799C315.688 4.33754 315.578 4.35879 315.475 4.40068C315.373 4.4426 315.279 4.50432 315.2 4.58232C315.122 4.66035 315.059 4.75315 315.016 4.85542C314.973 4.95768 314.95 5.06742 314.95 5.17837V6.03632C314.95 6.14736 314.972 6.25721 315.015 6.35962C315.058 6.462 315.121 6.55494 315.2 6.63309C315.279 6.71123 315.372 6.77304 315.475 6.81502C315.578 6.85699 315.688 6.8783 315.799 6.87766H318.373V7.72418H315.011V8.57069H318.378C318.489 8.5713 318.599 8.55005 318.702 8.50816C318.804 8.46624 318.898 8.40452 318.977 8.32652C319.056 8.24849 319.118 8.15569 319.161 8.05342C319.204 7.95116 319.227 7.84142 319.227 7.73047V6.87252C319.227 6.76148 319.205 6.65163 319.162 6.54922C319.119 6.44684 319.056 6.3539 318.977 6.27575C318.898 6.19761 318.805 6.1358 318.702 6.09382C318.599 6.05185 318.489 6.03057 318.378 6.03115Z" fill="#707A8A"/>
<path d="M323.358 4.33816H320.777C320.666 4.33724 320.556 4.35829 320.453 4.40006C320.35 4.44181 320.256 4.50348 320.177 4.58153C320.098 4.65959 320.035 4.75248 319.992 4.85492C319.949 4.95732 319.926 5.06724 319.926 5.17838V7.73052C319.926 7.84164 319.949 7.95158 319.992 8.05399C320.035 8.15639 320.098 8.24928 320.177 8.32734C320.256 8.4054 320.35 8.46707 320.453 8.50884C320.556 8.55061 320.666 8.57163 320.777 8.57074H323.358C323.468 8.57134 323.578 8.55007 323.681 8.50818C323.784 8.46629 323.877 8.40456 323.956 8.32654C324.035 8.24851 324.098 8.1557 324.141 8.05344C324.184 7.95118 324.206 7.84144 324.207 7.73052V5.17838C324.206 5.06744 324.184 4.9577 324.141 4.85543C324.098 4.75317 324.035 4.66037 323.956 4.58237C323.877 4.50434 323.784 4.44261 323.681 4.40072C323.578 4.35881 323.468 4.33756 323.358 4.33816ZM323.351 7.72422H320.784V5.18468H323.35L323.351 7.72422Z" fill="#707A8A"/>
<path d="M332.394 4.3382H329.878C329.767 4.33759 329.657 4.35884 329.554 4.40076C329.452 4.44265 329.358 4.50437 329.279 4.5824C329.2 4.66043 329.138 4.7532 329.095 4.85547C329.051 4.95773 329.029 5.06747 329.028 5.17842V8.57077H329.886V7.18031H332.392V8.57077H333.249V5.17842C333.249 5.06701 333.226 4.95678 333.183 4.85414C333.14 4.75151 333.076 4.65844 332.997 4.58036C332.917 4.50224 332.823 4.44066 332.72 4.39909C332.616 4.35755 332.506 4.33685 332.394 4.3382ZM332.388 6.33379H329.883V5.18471H332.388V6.33379Z" fill="#707A8A"/>
<path d="M342.413 4.33815H339.896C339.785 4.33754 339.675 4.35879 339.572 4.40068C339.47 4.4426 339.376 4.50432 339.297 4.58232C339.218 4.66035 339.156 4.75315 339.113 4.85542C339.07 4.95768 339.047 5.06742 339.047 5.17837V8.57069H339.905V7.18026H342.404V8.57069H343.262V5.17837C343.261 5.06742 343.239 4.95768 343.196 4.85542C343.153 4.75315 343.09 4.66035 343.011 4.58232C342.933 4.50432 342.839 4.4426 342.736 4.40068C342.634 4.35879 342.524 4.33754 342.413 4.33815ZM342.404 6.33374H339.899V5.18466H342.404V6.33374Z" fill="#707A8A"/>
<path d="M337.428 7.7242H337.085L335.858 4.69277C335.816 4.58818 335.744 4.49857 335.65 4.43537C335.557 4.37218 335.447 4.33834 335.334 4.33814H334.573C334.499 4.33777 334.425 4.35197 334.357 4.37994C334.288 4.40792 334.226 4.44909 334.174 4.50115C334.121 4.55319 334.079 4.61509 334.05 4.68331C334.022 4.75151 334.007 4.82471 334.007 4.89868V8.57072H334.864V5.18466H335.207L336.434 8.21611C336.476 8.32048 336.549 8.40975 336.643 8.47251C336.737 8.53527 336.847 8.56868 336.96 8.56845H337.721C337.795 8.56882 337.869 8.55462 337.937 8.52664C338.006 8.49867 338.068 8.4575 338.121 8.40543C338.173 8.3534 338.215 8.2915 338.244 8.2233C338.272 8.15508 338.287 8.08191 338.288 8.00791V4.33814H337.428V7.7242Z" fill="#707A8A"/>
<path d="M325.823 4.33813H324.965V7.73049C324.965 7.84167 324.988 7.95164 325.031 8.0541C325.074 8.15654 325.137 8.24946 325.216 8.32754C325.296 8.4056 325.389 8.46724 325.492 8.50898C325.596 8.5507 325.706 8.57169 325.817 8.57071H328.391V7.72419H325.823V4.33813Z" fill="#707A8A"/>
<path d="M71.5501 24.7256C71.5675 24.5958 71.5814 24.4661 71.6027 24.3369C71.7478 23.447 72.1359 22.6762 72.7603 22.0272C73.382 21.3809 74.1374 20.9702 75.0147 20.7871C75.4427 20.6979 75.876 20.6786 76.312 20.7226C77.1793 20.8091 77.9535 21.1273 78.6237 21.6797C79.4325 22.346 79.9403 23.198 80.1334 24.2298C80.3331 25.2974 80.164 26.3072 79.6016 27.237C78.9286 28.3493 77.9401 29.0256 76.6648 29.2805C76.5017 29.3131 76.3333 29.3211 76.1676 29.3404C76.1456 29.3431 76.1243 29.3477 76.1024 29.3517C75.9506 29.3517 75.7988 29.3517 75.6471 29.3517C75.6231 29.3477 75.5998 29.3431 75.5758 29.3398C75.3842 29.3145 75.1898 29.3005 75.0007 29.2612C74.2453 29.1048 73.5756 28.7726 73.0019 28.2561C72.2058 27.5399 71.7345 26.65 71.5894 25.5896C71.5735 25.4711 71.5628 25.3513 71.5501 25.2328C71.5501 25.0645 71.5501 24.8954 71.5501 24.7256ZM74.0429 26.9775C74.0429 26.9801 74.0429 26.9828 74.0429 26.9854C74.2706 26.9854 74.4982 26.9848 74.7258 26.9854C74.9728 26.9868 75.1585 26.8829 75.2816 26.6679C75.7742 25.8059 76.2661 24.9433 76.7607 24.082C76.8871 23.8617 76.8831 23.6493 76.7553 23.431C76.5603 23.0962 76.3713 22.758 76.1769 22.4233C76.117 22.3194 76.0558 22.2142 75.9805 22.1217C75.8781 21.9953 75.6957 21.9959 75.5872 22.1184C75.5359 22.1763 75.4946 22.2435 75.456 22.3108C74.7578 23.5295 74.0609 24.7496 73.364 25.969C73.2502 26.1681 73.1356 26.3671 73.0292 26.5694C72.922 26.7724 73.0771 26.9781 73.2668 26.9768C73.5257 26.9768 73.784 26.9775 74.0429 26.9775ZM77.6113 26.9781C77.6113 26.9808 77.6113 26.9834 77.6113 26.9861C77.6825 26.9861 77.7545 26.9868 77.8257 26.9861C78.0573 26.9828 78.2896 26.9861 78.5212 26.9735C78.7083 26.9628 78.8148 26.7771 78.7456 26.6034C78.7276 26.5581 78.705 26.5142 78.6803 26.4716C78.5099 26.1767 78.3395 25.8818 78.1658 25.5883C78.0546 25.4006 77.9461 25.2109 77.8237 25.0305C77.7238 24.8841 77.5168 24.8847 77.4017 25.0192C77.3697 25.0565 77.3424 25.0971 77.3171 25.139C77.196 25.344 77.0755 25.5497 76.9564 25.756C76.8012 26.0236 76.6462 26.2919 76.4937 26.5608C76.3753 26.7691 76.5384 26.9808 76.728 26.9788C77.0229 26.9754 77.3171 26.9781 77.6113 26.9781Z" fill="#707A8A"/>
<path d="M100.744 26.5341C100.56 26.5341 100.385 26.5341 100.207 26.5341C100.207 25.531 100.207 24.5312 100.207 23.5228C100.253 23.5228 100.299 23.5228 100.345 23.5228C100.512 23.5228 100.68 23.5248 100.847 23.5214C100.898 23.5201 100.926 23.5361 100.954 23.5787C101.411 24.2829 101.871 24.9852 102.331 25.6881C102.345 25.7094 102.359 25.7307 102.384 25.7679C102.384 25.0098 102.384 24.2716 102.384 23.5281C102.565 23.5281 102.739 23.5281 102.919 23.5281C102.919 24.5279 102.919 25.529 102.919 26.5381C102.836 26.5381 102.755 26.5381 102.672 26.5381C102.55 26.5381 102.426 26.5361 102.304 26.5394C102.258 26.5407 102.232 26.5241 102.208 26.4861C101.738 25.7559 101.267 25.0264 100.796 24.2969C100.782 24.2763 100.769 24.2563 100.744 24.239C100.744 25.0018 100.744 25.766 100.744 26.5341Z" fill="#707A8A"/>
<path d="M108.76 25.2122C108.76 25.6555 108.76 26.0915 108.76 26.5328C108.582 26.5328 108.407 26.5328 108.228 26.5328C108.228 25.5317 108.228 24.532 108.228 23.5275C108.402 23.5275 108.576 23.5275 108.758 23.5275C108.758 23.9216 108.758 24.3169 108.758 24.7183C109.231 24.7183 109.699 24.7183 110.172 24.7183C110.172 24.3216 110.172 23.9262 110.172 23.5269C110.355 23.5269 110.53 23.5269 110.708 23.5269C110.708 24.5293 110.708 25.5291 110.708 26.5335C110.532 26.5335 110.358 26.5335 110.176 26.5335C110.176 26.0935 110.176 25.6555 110.176 25.2129C109.702 25.2122 109.235 25.2122 108.76 25.2122Z" fill="#707A8A"/>
<path d="M112.779 25.2341C112.779 25.5104 112.779 25.7773 112.779 26.0502C113.289 26.0502 113.797 26.0502 114.311 26.0502C114.311 26.2126 114.311 26.3697 114.311 26.5328C113.625 26.5328 112.938 26.5328 112.244 26.5328C112.244 25.5317 112.244 24.5306 112.244 23.5261C112.907 23.5261 113.569 23.5261 114.234 23.5261C114.234 23.6846 114.234 23.8396 114.234 24.0027C113.752 24.0027 113.27 24.0027 112.782 24.0027C112.782 24.2543 112.782 24.498 112.782 24.7496C113.239 24.7496 113.697 24.7496 114.159 24.7496C114.159 24.9153 114.159 25.0724 114.159 25.2341C113.697 25.2341 113.241 25.2341 112.779 25.2341Z" fill="#707A8A"/>
<path d="M81.8061 26.538C81.9099 26.2991 82.0078 26.0728 82.1063 25.8464C82.4344 25.0943 82.7626 24.3421 83.0888 23.5886C83.1107 23.5387 83.1347 23.5181 83.1906 23.5207C83.2998 23.5254 83.4096 23.5254 83.5181 23.5207C83.5687 23.5187 83.5913 23.5361 83.6113 23.582C83.99 24.4646 84.3714 25.3472 84.7515 26.2292C84.7934 26.327 84.836 26.4249 84.8813 26.53C84.86 26.5327 84.8433 26.5374 84.8274 26.5374C84.6603 26.538 84.4925 26.536 84.3255 26.5387C84.2822 26.5394 84.2636 26.5234 84.2483 26.4848C84.1711 26.2904 84.0912 26.0974 84.014 25.903C83.998 25.8631 83.9793 25.8451 83.9321 25.8451C83.5327 25.8471 83.1333 25.8471 82.734 25.8458C82.6914 25.8458 82.6727 25.8591 82.6574 25.899C82.5842 26.0927 82.5057 26.2838 82.4318 26.4774C82.4138 26.524 82.3898 26.54 82.3392 26.5394C82.1669 26.5354 81.9931 26.538 81.8061 26.538ZM83.3377 24.1611C83.1779 24.5758 83.0229 24.9765 82.8658 25.3838C83.1819 25.3838 83.4861 25.3838 83.8003 25.3838C83.6465 24.9765 83.4948 24.5764 83.3377 24.1611Z" fill="#707A8A"/>
<path d="M99.0145 26.538C98.8501 26.538 98.6971 26.538 98.5433 26.538C98.4001 26.538 98.4001 26.538 98.3464 26.4056C98.2785 26.2385 98.2092 26.0721 98.144 25.9043C98.1279 25.8637 98.1106 25.8458 98.0635 25.8458C97.6641 25.8478 97.2645 25.8478 96.8652 25.8458C96.8226 25.8458 96.8034 25.8584 96.7881 25.8984C96.7134 26.0934 96.6349 26.2871 96.5604 26.4828C96.5443 26.524 96.5239 26.54 96.4779 26.5393C96.3022 26.536 96.1263 26.538 95.9407 26.538C95.9513 26.5094 95.9573 26.4894 95.9653 26.4701C96.3833 25.5096 96.8019 24.5491 97.2194 23.588C97.2406 23.5387 97.2659 23.5181 97.3211 23.5207C97.4304 23.5261 97.5402 23.5254 97.6495 23.5207C97.7006 23.5187 97.7225 23.5374 97.7418 23.5826C98.0701 24.3468 98.4001 25.1109 98.7296 25.8744C98.8222 26.0914 98.9153 26.3077 99.0145 26.538ZM97.4669 24.1604C97.3065 24.5757 97.1521 24.9765 96.9957 25.3838C97.314 25.3838 97.6181 25.3838 97.9304 25.3838C97.776 24.9778 97.6247 24.5771 97.4669 24.1604Z" fill="#707A8A"/>
<path d="M88.9396 26.5381C89.1106 26.144 89.2764 25.7626 89.4428 25.3812C89.7044 24.7815 89.9659 24.1824 90.2256 23.582C90.2455 23.5361 90.2681 23.5188 90.3187 23.5208C90.4299 23.5248 90.5417 23.5254 90.6536 23.5208C90.7048 23.5188 90.7261 23.5374 90.7454 23.5827C91.1028 24.4147 91.4616 25.2454 91.8197 26.0768C91.8836 26.2259 91.9482 26.375 92.0141 26.5281C91.9975 26.5321 91.9855 26.5367 91.9735 26.5367C91.7998 26.5374 91.6254 26.5354 91.4516 26.5387C91.407 26.5394 91.3951 26.5161 91.3817 26.4835C91.3039 26.2898 91.2233 26.0961 91.1474 25.9017C91.1315 25.8605 91.1108 25.8452 91.0649 25.8458C90.6675 25.8478 90.2708 25.8478 89.8734 25.8458C89.8235 25.8458 89.8042 25.8645 89.7876 25.9077C89.7137 26.1007 89.6351 26.2925 89.5619 26.4861C89.5466 26.5261 89.5273 26.5401 89.4847 26.5394C89.3077 26.5367 89.1293 26.5381 88.9396 26.5381ZM90.4791 24.1824C90.4738 24.1817 90.4685 24.1817 90.4632 24.1811C90.3094 24.5798 90.155 24.9792 89.9999 25.3812C90.3127 25.3812 90.6183 25.3812 90.9331 25.3812C90.7793 24.9758 90.6289 24.5791 90.4791 24.1824Z" fill="#707A8A"/>
<path d="M106.941 23.9201C106.8 24.024 106.665 24.1238 106.525 24.2263C106.504 24.207 106.485 24.1911 106.469 24.1744C106.198 23.9055 105.875 23.8755 105.534 23.9914C105.067 24.1498 104.813 24.6044 104.857 25.1216C104.883 25.4371 105 25.708 105.249 25.9117C105.562 26.1673 106.154 26.2784 106.54 25.7979C106.548 25.7879 106.557 25.7786 106.569 25.7646C106.716 25.8684 106.861 25.9709 107.009 26.0754C106.862 26.2851 106.674 26.4375 106.438 26.5154C105.85 26.7098 105.295 26.6406 104.808 26.2438C104.503 25.9962 104.35 25.6574 104.303 25.272C104.265 24.9645 104.294 24.6623 104.415 24.3741C104.633 23.8529 105.031 23.5594 105.584 23.4715C105.927 23.4169 106.259 23.4469 106.571 23.6153C106.713 23.6905 106.826 23.799 106.941 23.9201Z" fill="#707A8A"/>
<path d="M85.4671 23.5221C85.6634 23.5221 85.8551 23.5202 86.0462 23.5248C86.0655 23.5255 86.0928 23.5594 86.1014 23.5834C86.2379 23.9548 86.371 24.3276 86.5061 24.6997C86.6299 25.0424 86.7544 25.3852 86.8789 25.7287C86.8855 25.7467 86.8928 25.7646 86.9048 25.7959C87.1904 25.0311 87.4713 24.277 87.7515 23.5248C87.9452 23.5248 88.1342 23.5248 88.3306 23.5248C88.27 23.6759 88.2114 23.8224 88.1522 23.9681C87.8141 24.8028 87.4753 25.6375 87.1391 26.4735C87.1192 26.5235 87.0952 26.5408 87.0419 26.5388C86.9281 26.5348 86.8143 26.5361 86.7005 26.5381C86.6619 26.5388 86.6413 26.5281 86.6266 26.4895C86.2452 25.5164 85.8625 24.5432 85.4804 23.5707C85.4757 23.5568 85.4731 23.5421 85.4671 23.5221Z" fill="#707A8A"/>
<path d="M93.7427 26.0508C94.176 26.0508 94.5967 26.0508 95.0233 26.0508C95.0233 26.2125 95.0233 26.3696 95.0233 26.532C94.4223 26.532 93.8192 26.532 93.2122 26.532C93.2122 25.5303 93.2122 24.5292 93.2122 23.5254C93.3886 23.5254 93.5616 23.5254 93.7427 23.5254C93.7427 24.3641 93.7427 25.2028 93.7427 26.0508Z" fill="#707A8A"/>
<path d="M174.577 22.597C174.399 22.7205 174.268 22.8135 174.135 22.9045C173.974 23.0147 173.909 23.0034 173.792 22.8493C173.408 22.3373 172.858 22.1513 172.249 22.3307C171.909 22.4303 171.664 22.6375 171.589 22.9935C171.51 23.3654 171.617 23.6921 171.942 23.9007C172.27 24.1119 172.621 24.2865 172.964 24.4758C173.311 24.6684 173.671 24.8411 174.003 25.0563C174.682 25.4959 174.936 26.1462 174.787 26.9259C174.637 27.7122 174.103 28.1791 173.349 28.3451C172.266 28.5836 171.248 28.2774 170.635 27.1922C170.613 27.153 170.594 27.1112 170.567 27.058C170.784 26.9106 170.996 26.7665 171.192 26.6336C171.366 26.8674 171.51 27.1072 171.698 27.3058C172.24 27.8762 173.204 27.8955 173.723 27.3642C174.132 26.9458 174.139 26.2683 173.731 25.848C173.44 25.5471 173.058 25.391 172.692 25.209C172.27 24.9998 171.836 24.8013 171.452 24.5343C170.842 24.1105 170.648 23.4869 170.836 22.7796C171.022 22.0863 171.556 21.7582 172.226 21.6486C172.904 21.5377 173.555 21.6134 174.104 22.0743C174.276 22.2184 174.41 22.409 174.577 22.597Z" fill="#707A8A"/>
<path d="M152.738 28.2269C152.738 26.085 152.738 23.9485 152.738 21.7907C152.793 21.788 152.847 21.7827 152.902 21.7827C153.479 21.7821 154.056 21.7748 154.633 21.786C154.862 21.7907 155.095 21.8146 155.318 21.8651C156.234 22.071 156.727 22.7491 156.679 23.7147C156.626 24.7667 155.976 25.403 154.857 25.474C154.472 25.4986 154.085 25.4833 153.699 25.4867C153.636 25.4873 153.575 25.4867 153.496 25.4867C153.496 26.4072 153.496 27.3097 153.496 28.2276C153.235 28.2269 152.991 28.2269 152.738 28.2269ZM153.499 24.8039C154.07 24.782 154.635 24.8697 155.188 24.699C155.606 24.5701 155.837 24.2839 155.895 23.8509C155.981 23.2139 155.733 22.7504 155.201 22.577C154.645 22.3964 154.073 22.4874 153.5 22.4648C153.499 23.2531 153.499 24.0176 153.499 24.8039Z" fill="#707A8A"/>
<path d="M151.619 28.2409C151.345 28.2409 151.104 28.2468 150.864 28.2356C150.822 28.2336 150.768 28.1645 150.747 28.1147C150.549 27.6478 150.353 27.1796 150.167 26.708C150.118 26.5832 150.06 26.5327 149.918 26.5334C148.989 26.5407 148.06 26.54 147.132 26.534C147 26.5334 146.942 26.5759 146.894 26.6974C146.709 27.1696 146.508 27.6352 146.319 28.1061C146.279 28.205 146.23 28.2495 146.118 28.2442C145.901 28.2349 145.684 28.2415 145.437 28.2415C146.469 26.0798 147.487 23.9445 148.523 21.7734C149.56 23.9392 150.581 26.0731 151.619 28.2409ZM148.519 23.1509C148.083 24.076 147.662 24.968 147.234 25.8765C148.105 25.8765 148.948 25.8765 149.812 25.8765C149.381 24.9673 148.958 24.076 148.519 23.1509Z" fill="#707A8A"/>
<path d="M159.427 22.4801C158.671 22.4801 157.947 22.4801 157.209 22.4801C157.209 22.2463 157.209 22.0251 157.209 21.7933C158.937 21.7933 160.658 21.7933 162.396 21.7933C162.396 22.0112 162.396 22.2317 162.396 22.4714C161.671 22.4714 160.942 22.4714 160.188 22.4714C160.188 24.3994 160.188 26.3102 160.188 28.2309C159.924 28.2309 159.686 28.2309 159.427 28.2309C159.427 26.3188 159.427 24.4127 159.427 22.4801Z" fill="#707A8A"/>
<path d="M169.526 24.7236C169.424 24.7236 169.361 24.7236 169.299 24.7236C168.55 24.7236 167.801 24.7196 167.051 24.7262C166.887 24.7276 166.76 24.6897 166.664 24.5522C166.622 24.4911 166.568 24.4373 166.516 24.3842C166.405 24.2726 166.276 24.2567 166.189 24.3842C165.972 24.7056 165.671 24.7375 165.319 24.7296C164.49 24.711 163.659 24.7236 162.83 24.7236C162.768 24.7236 162.705 24.7236 162.593 24.7236C162.66 24.4407 162.716 24.1803 162.79 23.9253C162.8 23.8921 162.904 23.8695 162.965 23.8695C163.962 23.8662 164.959 23.8615 165.956 23.8708C166.196 23.8728 166.372 23.8057 166.523 23.6145C166.719 23.3654 166.812 23.3628 167.005 23.6151C167.16 23.8164 167.339 23.8788 167.585 23.8715C168.115 23.8562 168.645 23.8708 169.175 23.8635C169.298 23.8615 169.353 23.9027 169.375 24.0183C169.419 24.2441 169.47 24.4679 169.526 24.7236Z" fill="#707A8A"/>
<path d="M162.643 25.6533C163.372 25.6533 164.045 25.646 164.72 25.6573C164.958 25.6613 165.137 25.5935 165.29 25.4049C165.499 25.1459 165.581 25.1452 165.783 25.4023C165.933 25.5929 166.104 25.662 166.346 25.6586C167.309 25.646 168.272 25.6533 169.235 25.6533C169.298 25.6533 169.361 25.6533 169.444 25.6533C169.413 25.9548 169.314 26.2198 169.186 26.4755C169.173 26.5021 169.107 26.5134 169.065 26.5134C167.946 26.5154 166.828 26.5194 165.709 26.5074C165.614 26.5068 165.502 26.4184 165.429 26.3407C165.114 26.0053 165.111 25.994 164.805 26.3248C164.671 26.4696 164.533 26.5253 164.338 26.5194C163.918 26.5061 163.497 26.5127 163.076 26.5174C162.981 26.5187 162.925 26.4935 162.895 26.4005C162.817 26.1607 162.734 25.9236 162.643 25.6533Z" fill="#707A8A"/>
<path d="M168.787 22.9443C168.576 22.9443 168.361 22.9655 168.154 22.935C168.05 22.9197 167.947 22.8227 167.868 22.739C167.591 22.4402 167.569 22.4276 167.296 22.7298C167.148 22.8951 166.989 22.9522 166.769 22.9502C165.686 22.9403 164.603 22.9456 163.52 22.9456C163.458 22.9456 163.396 22.9456 163.288 22.9456C163.945 22.1214 164.752 21.6558 165.761 21.5755C167.009 21.4758 168.015 21.9474 168.804 22.8978C168.799 22.9137 168.793 22.929 168.787 22.9443Z" fill="#707A8A"/>
<path d="M163.583 27.4213C163.725 27.2917 163.858 27.1821 163.977 27.0593C164.14 26.8919 164.247 26.8753 164.384 27.0659C164.558 27.309 164.774 27.3708 165.064 27.3668C166.223 27.3509 167.381 27.3601 168.542 27.3601C168.388 27.7766 167.287 28.359 166.43 28.4447C165.308 28.5563 164.35 28.1937 163.583 27.4213Z" fill="#707A8A"/>
<path d="M247.521 25.2869C247.389 25.8884 247.257 26.4898 247.119 27.1234C246.871 27.1234 246.608 27.1234 246.288 27.1234C246.366 26.6568 246.444 26.1909 246.523 25.725C246.542 25.6137 246.568 25.5038 246.584 25.3918C246.664 24.8388 246.551 24.5898 246.183 24.5028C245.74 24.3979 245.266 24.6305 245.139 25.0936C244.983 25.6636 244.9 26.2537 244.784 26.8352C244.766 26.9301 244.742 27.0242 244.717 27.1341C244.435 27.1341 244.169 27.1341 243.866 27.1341C243.967 26.5812 244.065 26.0453 244.162 25.5081C244.276 24.8816 244.16 24.5891 243.765 24.5014C243.272 24.3915 242.824 24.6704 242.685 25.2234C242.56 25.7157 242.488 26.2208 242.392 26.7203C242.366 26.8573 242.338 26.9943 242.31 27.1362C242.016 27.1362 241.748 27.1362 241.447 27.1362C241.649 26.0061 241.847 24.8988 242.047 23.7772C242.334 23.7772 242.602 23.7772 242.896 23.7772C242.878 23.9384 242.861 24.089 242.853 24.1546C243.222 24.0197 243.616 23.8029 244.032 23.7422C244.508 23.673 244.879 23.9327 245.018 24.3009C245.463 24.1096 245.884 23.855 246.341 23.7515C246.892 23.6266 247.28 23.9484 247.52 24.4379C247.521 24.7211 247.521 25.0037 247.521 25.2869Z" fill="#707A8A"/>
<path d="M235.754 27.1404C235.455 27.1404 235.202 27.1404 234.89 27.1404C234.989 26.5853 235.085 26.0516 235.18 25.5187C235.294 24.8851 235.185 24.5983 234.796 24.5048C234.289 24.3828 233.831 24.676 233.693 25.249C233.58 25.7148 233.466 26.1879 233.436 26.6631C233.406 27.109 233.202 27.2139 232.813 27.1547C232.716 27.1404 232.617 27.1433 232.478 27.1368C232.581 26.5646 232.682 26.0152 232.781 25.4652C232.882 24.9022 232.771 24.6118 232.415 24.5112C231.947 24.3778 231.466 24.6297 231.327 25.1448C231.186 25.6606 231.11 26.1943 231.006 26.7201C230.979 26.8564 230.949 26.9927 230.919 27.1354C230.631 27.1354 230.364 27.1354 230.059 27.1354C230.261 26.0053 230.458 24.8986 230.658 23.7778C230.946 23.7778 231.214 23.7778 231.507 23.7778C231.489 23.9347 231.472 24.0831 231.464 24.1502C231.84 24.0153 232.235 23.8013 232.652 23.7428C233.128 23.6764 233.5 23.9347 233.64 24.335C234.028 24.1373 234.387 23.8548 234.788 23.7713C235.683 23.5851 236.23 24.1174 236.117 25.0199C236.031 25.7177 235.882 26.4077 235.754 27.1404Z" fill="#707A8A"/>
<path d="M217.107 25.3631C217.088 23.9126 218.169 22.7895 219.59 22.7846C220.713 22.781 221.484 23.5294 221.491 24.6311C221.501 26.0487 220.421 27.1682 219.018 27.1925C217.895 27.2124 217.122 26.4711 217.107 25.3631ZM217.987 25.2689C217.985 26.0209 218.448 26.4454 219.205 26.3855C220.096 26.3156 220.736 25.4159 220.584 24.447C220.505 23.9468 220.185 23.6422 219.682 23.5894C218.737 23.4895 217.988 24.2322 217.987 25.2689Z" fill="#707A8A"/>
<path d="M222.78 26.5426C222.636 27.3239 222.506 28.0259 222.374 28.7451C222.09 28.7451 221.825 28.7451 221.513 28.7451C221.806 27.087 222.098 25.4424 222.393 23.7807C222.68 23.7807 222.945 23.7807 223.22 23.7807C223.22 23.9334 223.22 24.0725 223.22 24.1517C223.597 24.0197 223.985 23.8078 224.392 23.7593C225.085 23.6765 225.524 24.0611 225.659 24.7375C225.883 25.8755 225.055 27.0613 223.968 27.1733C223.465 27.2254 223.079 27.0584 222.78 26.5426ZM224.773 25.3197C224.792 24.8096 224.539 24.5042 224.085 24.487C223.485 24.4649 222.982 24.948 222.952 25.5723C222.927 26.0959 223.196 26.4177 223.667 26.427C224.269 26.4399 224.75 25.9597 224.773 25.3197Z" fill="#707A8A"/>
<path d="M238.186 26.0502C238.566 26.0888 238.93 25.904 239.174 26.3706C239.252 26.5197 239.652 26.539 239.906 26.5461C240.01 26.549 240.187 26.3713 240.205 26.2572C240.222 26.1473 240.105 25.9525 239.996 25.8997C239.731 25.7706 239.435 25.7049 239.153 25.6093C238.616 25.4267 238.407 25.1841 238.409 24.7539C238.412 24.2972 238.67 23.9176 239.19 23.8313C239.623 23.76 240.098 23.7771 240.525 23.8763C240.954 23.9761 241.178 24.3422 241.211 24.8366C240.844 24.8266 240.487 25.0321 240.219 24.5598C240.132 24.4078 239.747 24.39 239.495 24.3821C239.403 24.3793 239.251 24.5733 239.228 24.696C239.211 24.7867 239.338 24.9579 239.44 25.0043C239.724 25.1306 240.031 25.2033 240.324 25.3104C240.841 25.4987 241.044 25.7598 241.03 26.1951C241.016 26.6424 240.768 26.9564 240.274 27.1019C239.752 27.256 239.233 27.2375 238.741 26.9849C238.388 26.8015 238.183 26.5183 238.186 26.0502Z" fill="#707A8A"/>
<path d="M227.838 26.4306C227.796 26.6718 227.758 26.8886 227.713 27.1476C227.492 27.1476 227.281 27.1633 227.074 27.1448C226.477 27.0913 226.199 26.7738 226.267 26.1823C226.328 25.65 226.436 25.1235 226.529 24.5634C226.4 24.532 226.272 24.5013 226.103 24.4599C226.133 24.2416 226.163 24.0233 226.195 23.7914C226.362 23.77 226.512 23.7514 226.675 23.7301C226.728 23.4696 226.778 23.2228 226.833 22.9509C227.1 22.9509 227.363 22.9509 227.675 22.9509C227.642 23.2106 227.612 23.4553 227.576 23.7393C227.808 23.7514 228.028 23.7629 228.294 23.7764C228.249 24.0297 228.209 24.2566 228.164 24.5077C227.908 24.5077 227.684 24.5077 227.418 24.5077C227.326 25.0257 227.236 25.5209 227.153 26.0182C227.113 26.2586 227.21 26.3999 227.472 26.4042C227.584 26.4063 227.695 26.4199 227.838 26.4306Z" fill="#707A8A"/>
<path d="M229.873 23.7806C229.674 24.9022 229.478 26.0003 229.278 27.1254C229.009 27.1254 228.746 27.1254 228.413 27.1254C228.613 26.0024 228.81 24.8894 229.007 23.7806C229.32 23.7806 229.587 23.7806 229.873 23.7806Z" fill="#707A8A"/>
<path d="M237.11 23.7799C237.4 23.7799 237.664 23.7799 237.973 23.7799C237.781 24.8737 237.598 25.9404 237.399 27.0049C237.388 27.0655 237.262 27.139 237.185 27.1468C236.976 27.1668 236.764 27.1533 236.511 27.1533C236.715 26.0039 236.911 24.8994 237.11 23.7799Z" fill="#707A8A"/>
<path d="M229.371 23.2533C229.312 23.1691 229.134 23.0215 229.105 22.8488C229.057 22.5705 229.384 22.3123 229.704 22.328C229.958 22.3401 230.147 22.4464 230.144 22.7361C230.142 23.0243 229.856 23.2605 229.371 23.2533Z" fill="#707A8A"/>
<path d="M237.493 23.2562C237.43 23.177 237.239 23.0379 237.201 22.8652C237.142 22.6005 237.478 22.3215 237.792 22.3244C238.052 22.3265 238.235 22.4485 238.253 22.7218C238.272 23 237.971 23.2547 237.493 23.2562Z" fill="#707A8A"/>
<path d="M211.53 29.3523C211.368 29.3523 211.207 29.3523 211.045 29.3523C211.02 29.3466 210.996 29.3373 210.97 29.3359C210.394 29.2959 209.85 29.1404 209.334 28.88C207.532 27.9724 206.6 25.9204 207.094 23.964C207.6 21.9627 209.49 20.5543 211.598 20.712C212.35 20.7683 213.044 20.9945 213.668 21.4169C214.732 22.1368 215.367 23.1335 215.565 24.4057C215.585 24.5363 215.599 24.6675 215.615 24.7988C215.615 24.9487 215.615 25.0992 215.615 25.249C215.609 25.2797 215.603 25.3104 215.598 25.3411C215.555 25.6022 215.533 25.8683 215.466 26.123C215.217 27.0741 214.7 27.8554 213.919 28.4533C213.322 28.9092 212.652 29.1996 211.905 29.3023C211.779 29.3195 211.655 29.3352 211.53 29.3523ZM211.305 24.5919C211.296 24.2751 211.176 24.0589 210.918 23.9419C210.799 23.8884 210.666 23.8513 210.537 23.8406C209.981 23.7949 209.508 24.0033 209.325 24.5962C209.252 24.8316 209.197 25.0749 209.161 25.319C209.097 25.7613 209.299 26.0538 209.728 26.1409C209.886 26.173 210.054 26.1766 210.216 26.1637C210.577 26.1345 210.863 25.9696 211.034 25.6386C211.209 25.2997 211.245 24.9244 211.305 24.5919ZM212.143 25.3389C212.36 25.3389 212.568 25.3518 212.773 25.3361C213.195 25.3054 213.456 25.0742 213.563 24.6597C213.663 24.2744 213.51 24.009 213.127 23.9048C213.079 23.892 213.031 23.8798 212.982 23.8784C212.637 23.8713 212.291 23.867 211.946 23.8635C211.869 23.8627 211.835 23.9098 211.821 23.9812C211.784 24.1588 211.745 24.3358 211.707 24.5127C211.602 25.0107 211.496 25.508 211.391 26.006C211.366 26.1237 211.384 26.1437 211.503 26.1444C211.616 26.1452 211.728 26.1452 211.841 26.1444C211.949 26.1437 211.977 26.1195 211.999 26.0153C212.045 25.7963 212.092 25.5779 212.143 25.3389Z" fill="#707A8A"/>
<path d="M210.708 24.6268C210.644 24.8858 210.596 25.1498 210.513 25.4031C210.439 25.63 210.211 25.7384 209.977 25.6949C209.849 25.6714 209.761 25.5829 209.769 25.4481C209.78 25.2797 209.811 25.112 209.843 24.9465C209.865 24.8316 209.896 24.716 209.939 24.6069C210.029 24.3792 210.244 24.2686 210.484 24.3157C210.626 24.3436 210.688 24.4392 210.686 24.6211C210.693 24.6233 210.7 24.6254 210.708 24.6268Z" fill="#707A8A"/>
<path d="M212.229 24.8965C212.269 24.7038 212.309 24.5162 212.352 24.3121C212.519 24.32 212.685 24.3214 212.85 24.3371C212.931 24.3449 212.974 24.417 212.979 24.5076C212.987 24.711 212.851 24.8758 212.641 24.8943C212.507 24.9065 212.371 24.8965 212.229 24.8965Z" fill="#707A8A"/>
<path d="M277.091 24.7472L277.694 23.7246L279.318 26.2546L279.319 26.7401L279.314 23.3991C279.31 23.3174 279.267 23.2427 279.197 23.1987L276.273 21.5165C276.205 21.4829 276.118 21.4833 276.05 21.5176C276.04 21.5222 276.032 21.5272 276.023 21.5327L276.013 21.5391L273.175 23.184L273.164 23.189C273.15 23.1956 273.135 23.2038 273.122 23.2134C273.068 23.2521 273.032 23.3091 273.021 23.3731C273.019 23.3828 273.018 23.3927 273.017 23.4027L273.022 26.1252L274.534 23.7802C274.725 23.4693 275.14 23.3691 275.525 23.3746L275.977 23.3865L273.313 27.6592L273.627 27.8401L276.323 23.3908L277.515 23.3865L274.826 27.948L275.947 28.5926L276.08 28.6696C276.137 28.6926 276.204 28.6938 276.261 28.6732L279.226 26.9547L278.659 27.2832L277.091 24.7472ZM277.321 28.0587L276.189 26.2821L276.88 25.1097L278.367 27.4527L277.321 28.0587Z" fill="#707A8A"/>
<path d="M276.19 26.2822L277.321 28.0587L278.367 27.4528L276.88 25.1097L276.19 26.2822Z" fill="#323740"/>
<path d="M279.319 26.74L279.318 26.2545L277.694 23.7246L277.091 24.7471L278.659 27.2831L279.226 26.9546C279.282 26.9094 279.316 26.8432 279.319 26.7716L279.319 26.74Z" fill="#323740"/>
<path d="M272.513 27.1979L273.313 27.6593L275.977 23.3865L275.525 23.3746C275.14 23.3691 274.725 23.4693 274.534 23.7802L273.022 26.1253L272.513 26.9073L272.513 27.1979Z" fill="white"/>
<path d="M277.515 23.3866L276.324 23.3909L273.627 27.8401L274.57 28.3827L274.826 27.9481L277.515 23.3866Z" fill="white"/>
<path d="M279.822 23.3804C279.812 23.1312 279.677 22.903 279.465 22.7702L276.503 21.0665C276.293 20.9612 276.032 20.961 275.823 21.0664C275.798 21.0789 272.942 22.7355 272.942 22.7355C272.902 22.7544 272.864 22.777 272.828 22.8026C272.64 22.9379 272.524 23.148 272.513 23.3789V26.9074L273.022 26.1253L273.017 23.4028C273.018 23.3928 273.019 23.383 273.021 23.3734C273.032 23.3093 273.068 23.2521 273.122 23.2135C273.135 23.2039 276.041 21.5223 276.05 21.5177C276.118 21.4833 276.205 21.483 276.273 21.5166L279.198 23.1987C279.267 23.2428 279.31 23.3175 279.314 23.3992V26.7718C279.31 26.8433 279.282 26.9095 279.227 26.9547L278.66 27.2832L278.367 27.4528L277.321 28.0587L276.261 28.6732C276.204 28.6939 276.137 28.6927 276.081 28.6697L274.826 27.9481L274.57 28.3827L275.697 29.0319C275.734 29.0531 275.768 29.0719 275.795 29.0872C275.837 29.1109 275.866 29.1267 275.876 29.1316C275.956 29.1705 276.072 29.1932 276.175 29.1932C276.271 29.1932 276.364 29.1757 276.451 29.1412L279.531 27.3576C279.708 27.2206 279.812 27.0141 279.822 26.7903V23.3804Z" fill="#323740"/>
<path d="M283.773 23.7963C283.865 23.7963 283.942 23.815 284.005 23.8524C284.068 23.8899 284.129 23.9631 284.19 24.072L285.391 26.2527C285.403 26.2769 285.406 26.2968 285.4 26.3125C285.394 26.3283 285.376 26.336 285.347 26.336H284.887C284.845 26.336 284.818 26.3203 284.803 26.2889L284.546 25.8209H282.84L282.59 26.2889C282.573 26.3204 282.545 26.336 282.506 26.336H282.035C282.003 26.336 281.985 26.3283 281.979 26.3125C281.972 26.2968 281.975 26.2769 281.988 26.2527L283.178 24.072C283.238 23.9631 283.297 23.89 283.356 23.8524C283.414 23.815 283.481 23.7963 283.559 23.7963H283.773ZM283.069 25.4H284.317L283.74 24.3369C283.73 24.32 283.717 24.3114 283.7 24.3114H283.678C283.661 24.3114 283.648 24.32 283.638 24.3369L283.069 25.4Z" fill="#707A8A"/>
<path d="M289.201 23.7963C289.479 23.7963 289.679 23.8592 289.8 23.985C289.921 24.1107 289.981 24.297 289.981 24.5437V24.7505C289.981 24.9585 289.939 25.1231 289.854 25.244C289.77 25.365 289.632 25.4423 289.441 25.4761L290.061 26.2454C290.073 26.2576 290.077 26.2756 290.072 26.2998C290.067 26.324 290.048 26.336 290.014 26.336H289.546C289.514 26.336 289.492 26.3325 289.48 26.3253C289.468 26.318 289.456 26.3059 289.444 26.2889L288.871 25.5343H287.699V26.2563C287.699 26.3095 287.672 26.336 287.619 26.336H287.227C287.172 26.336 287.144 26.3095 287.144 26.2563V23.9051C287.144 23.8325 287.18 23.7963 287.253 23.7963H289.201ZM287.699 25.0915H289.089C289.212 25.0915 289.299 25.065 289.35 25.0117C289.401 24.9586 289.426 24.8776 289.426 24.7686V24.6162C289.426 24.5074 289.401 24.4263 289.35 24.3731C289.299 24.32 289.212 24.2933 289.089 24.2933H287.746C287.715 24.2933 287.699 24.3078 287.699 24.3369L287.699 25.0915Z" fill="#707A8A"/>
<path d="M294.039 23.7963C294.288 23.7963 294.465 23.8458 294.57 23.945C294.676 24.0441 294.728 24.1941 294.728 24.3949V24.5691C294.728 24.7723 294.651 24.9259 294.496 25.0299C294.663 25.1267 294.746 25.2828 294.746 25.498V25.7085C294.746 25.8053 294.735 25.8924 294.714 25.9698C294.692 26.0471 294.656 26.113 294.607 26.1675C294.557 26.2219 294.491 26.2636 294.409 26.2927C294.327 26.3217 294.225 26.3361 294.104 26.3361H291.949C291.876 26.3361 291.84 26.2998 291.84 26.2273V23.9051C291.84 23.8325 291.876 23.7963 291.949 23.7963H294.039ZM292.395 24.8521H293.883C294.004 24.8521 294.086 24.8339 294.13 24.7977C294.173 24.7613 294.195 24.7082 294.195 24.6379V24.5146C294.195 24.4396 294.174 24.3846 294.131 24.3494C294.089 24.3145 294.021 24.2969 293.926 24.2969H292.442C292.411 24.2969 292.395 24.3127 292.395 24.344V24.8521ZM292.395 25.2476V25.7882C292.395 25.8196 292.411 25.8354 292.442 25.8354H293.93C294.027 25.8354 294.096 25.8178 294.137 25.7828C294.178 25.7478 294.198 25.6915 294.198 25.6141V25.4761C294.198 25.4011 294.176 25.3443 294.131 25.3056C294.086 25.267 294.004 25.2475 293.883 25.2475L292.395 25.2476Z" fill="#707A8A"/>
<path d="M297.049 23.7963C297.103 23.7963 297.129 23.8228 297.129 23.876V26.2563C297.129 26.3095 297.103 26.336 297.049 26.336H296.657C296.602 26.336 296.574 26.3095 296.574 26.2563V23.876C296.574 23.8228 296.602 23.7963 296.657 23.7963H297.049Z" fill="#707A8A"/>
<path d="M301.801 23.7963C301.857 23.7963 301.884 23.8228 301.884 23.876V24.2316C301.884 24.2872 301.857 24.315 301.801 24.315H300.662V26.2562C300.662 26.3095 300.635 26.336 300.582 26.336H300.186C300.133 26.336 300.106 26.3095 300.106 26.2562V24.3151H298.967C298.912 24.3151 298.884 24.2873 298.884 24.2316V23.8761C298.884 23.8229 298.912 23.7963 298.967 23.7963L301.801 23.7963Z" fill="#707A8A"/>
<path d="M305.693 23.7963C305.971 23.7963 306.171 23.8592 306.291 23.985C306.413 24.1107 306.473 24.297 306.473 24.5437V24.7505C306.473 24.9585 306.431 25.1231 306.346 25.244C306.261 25.365 306.123 25.4423 305.932 25.4761L306.553 26.2454C306.565 26.2576 306.568 26.2756 306.563 26.2998C306.559 26.324 306.539 26.336 306.506 26.336H306.037C306.006 26.336 305.984 26.3325 305.972 26.3253C305.96 26.318 305.948 26.3059 305.936 26.2889L305.363 25.5343H304.191V26.2563C304.191 26.3095 304.164 26.336 304.111 26.336H303.719C303.663 26.336 303.636 26.3095 303.636 26.2563V23.9051C303.636 23.8325 303.672 23.7963 303.745 23.7963H305.693ZM304.191 25.0915H305.58C305.704 25.0915 305.791 25.065 305.842 25.0117C305.892 24.9586 305.918 24.8776 305.918 24.7686V24.6162C305.918 24.5074 305.892 24.4263 305.842 24.3731C305.791 24.32 305.704 24.2933 305.58 24.2933H304.238C304.206 24.2933 304.191 24.3078 304.191 24.3369V25.0915Z" fill="#707A8A"/>
<path d="M308.754 23.7963C308.807 23.7963 308.834 23.8228 308.834 23.876V25.3238C308.834 25.4206 308.842 25.501 308.857 25.565C308.873 25.6291 308.899 25.6799 308.935 25.7173C308.972 25.7549 309.021 25.7816 309.083 25.7971C309.144 25.813 309.222 25.8208 309.317 25.8208H310.321C310.416 25.8208 310.494 25.813 310.555 25.7971C310.617 25.7815 310.666 25.7549 310.703 25.7173C310.739 25.6799 310.764 25.6291 310.779 25.565C310.793 25.5009 310.8 25.4205 310.8 25.3238V23.876C310.8 23.8228 310.827 23.7963 310.88 23.7963H311.276C311.329 23.7963 311.355 23.8228 311.355 23.876V25.3781C311.355 25.5523 311.337 25.7005 311.301 25.8227C311.265 25.9448 311.206 26.044 311.125 26.1202C311.044 26.1964 310.939 26.2514 310.81 26.2853C310.68 26.3192 310.523 26.336 310.34 26.336H309.295C309.111 26.336 308.955 26.3192 308.827 26.2853C308.698 26.2514 308.594 26.1964 308.513 26.1202C308.432 26.044 308.372 25.9448 308.335 25.8227C308.297 25.7005 308.279 25.5523 308.279 25.3781V23.876C308.279 23.8228 308.306 23.7963 308.362 23.7963H308.754Z" fill="#707A8A"/>
<path d="M313.94 23.7963C313.993 23.7963 314.039 23.7998 314.078 23.8071C314.117 23.8143 314.151 23.8283 314.18 23.8488C314.209 23.8694 314.234 23.8973 314.257 23.9323C314.28 23.9673 314.304 24.0139 314.329 24.0719L315.083 25.8135C315.093 25.8354 315.11 25.8462 315.134 25.8462H315.177C315.202 25.8462 315.219 25.8354 315.228 25.8135L315.983 24.0719C316.007 24.0138 316.031 23.9673 316.054 23.9323C316.077 23.8973 316.103 23.8694 316.131 23.8488C316.161 23.8283 316.194 23.8143 316.231 23.8071C316.269 23.7998 316.314 23.7963 316.367 23.7963H316.756C316.882 23.7963 316.966 23.8247 317.01 23.8815C317.053 23.9384 317.075 24.0358 317.075 24.1736V26.2563C317.075 26.3095 317.047 26.336 316.992 26.336H316.622C316.568 26.336 316.542 26.3095 316.542 26.2563V24.3622C316.542 24.3381 316.532 24.326 316.513 24.326H316.48C316.456 24.326 316.44 24.3357 316.433 24.355L315.7 25.9805C315.671 26.0458 315.641 26.101 315.611 26.1456C315.581 26.1904 315.548 26.2273 315.513 26.2563C315.478 26.2853 315.438 26.3059 315.393 26.318C315.349 26.3301 315.296 26.336 315.236 26.336H315.061C315.001 26.336 314.948 26.3301 314.904 26.318C314.859 26.3059 314.819 26.2853 314.784 26.2563C314.749 26.2273 314.716 26.1904 314.686 26.1456C314.656 26.101 314.626 26.0458 314.597 25.9805L313.864 24.355C313.857 24.3356 313.841 24.326 313.817 24.326H313.784C313.765 24.326 313.755 24.3381 313.755 24.3622V26.2563C313.755 26.3095 313.729 26.336 313.676 26.336H313.305C313.25 26.336 313.222 26.3095 313.222 26.2563V24.1736C313.222 24.0358 313.244 23.9384 313.287 23.8815C313.331 23.8248 313.417 23.7963 313.545 23.7963H313.94Z" fill="#707A8A"/>
</svg>
