<svg width="29" height="19" viewBox="0 0 29 19" fill="none" xmlns="http://www.w3.org/2000/svg">
<path d="M0 1C0 0.447715 0.447715 0 1 0H28C28.5523 0 29 0.447715 29 1C29 1.55228 28.5523 2 28 2H1C0.447716 2 0 1.55228 0 1Z" fill="#D9D9D9"/>
<path d="M0 9C0 8.44772 0.447715 8 1 8H28C28.5523 8 29 8.44772 29 9V9C29 9.55228 28.5523 10 28 10H1C0.447716 10 0 9.55228 0 9V9Z" fill="#D9D9D9"/>
<path d="M0 18C0 17.4477 0.447715 17 1 17H28C28.5523 17 29 17.4477 29 18C29 18.5523 28.5523 19 28 19H1C0.447716 19 0 18.5523 0 18Z" fill="#D9D9D9"/>
</svg>
